/* XPM */
static char *_327_2f018019ebeeebe6a2da1da1c2b786d50742a717ace174229680bf908bce526c[] = {
/* columns rows colors chars-per-pixel */
"64 64 237 2 ",
"   c #161E0B",
".  c #181F13",
"X  c #192B06",
"o  c #15240A",
"O  c #1B250C",
"+  c #1B2C0C",
"@  c #142907",
"#  c #1D330B",
"$  c #1D3507",
"%  c #1B2412",
"&  c #1D2B12",
"*  c #1D2319",
"=  c #1E3411",
"-  c #0F2506",
";  c #22340D",
":  c #253B0D",
">  c #293D0E",
",  c #233806",
"<  c #222D14",
"1  c #22251C",
"2  c #252C1C",
"3  c #292E1E",
"4  c #202514",
"5  c #233413",
"6  c #253C12",
"7  c #2A3D13",
"8  c #2A341C",
"9  c #2D3C1B",
"0  c #253219",
"q  c #262622",
"w  c #272823",
"e  c #2B2C24",
"r  c #2C2C28",
"t  c #2C3322",
"y  c #2D3923",
"u  c #313426",
"i  c #323B24",
"p  c #32342B",
"a  c #35392C",
"s  c #3A3C2D",
"d  c #343431",
"f  c #3B3C32",
"g  c #383934",
"h  c #30322E",
"j  c #403D36",
"k  c #27440B",
"l  c #2B440E",
"z  c #2D4B0C",
"x  c #294606",
"c  c #314C0E",
"v  c #2E500C",
"b  c #2F5507",
"n  c #33530E",
"m  c #345A0C",
"M  c #3A5E0E",
"N  c #2C4413",
"B  c #2E4A13",
"V  c #2E421A",
"C  c #264311",
"Z  c #314515",
"A  c #324C14",
"S  c #32441B",
"D  c #344B1A",
"F  c #394D1C",
"G  c #394F16",
"H  c #355313",
"J  c #395515",
"K  c #365A13",
"L  c #3B5C14",
"P  c #36511A",
"I  c #3A531B",
"U  c #3C5C1A",
"Y  c #39610D",
"T  c #3D6215",
"R  c #3E621B",
"E  c #3F691C",
"W  c #344423",
"Q  c #3A4727",
"!  c #364A23",
"~  c #3B4D23",
"^  c #3B442B",
"/  c #3D4C2C",
"(  c #36452A",
")  c #3D5323",
"_  c #3F5C21",
"`  c #3E512B",
"'  c #3E4334",
"]  c #3F4935",
"[  c #415C1C",
"{  c #405819",
"}  c #416415",
"|  c #436A15",
" . c #42641B",
".. c #456B1A",
"X. c #4A6D1C",
"o. c #496D12",
"O. c #4A7215",
"+. c #4C721C",
"@. c #477318",
"#. c #517A1C",
"$. c #50761D",
"%. c #416F0E",
"&. c #424D2D",
"*. c #414F26",
"=. c #425525",
"-. c #435B24",
";. c #43552B",
":. c #455A2B",
">. c #495C2C",
",. c #485929",
"<. c #424536",
"1. c #444D34",
"2. c #43443B",
"3. c #454A3B",
"4. c #494C3E",
"5. c #455432",
"6. c #4A5534",
"7. c #4B5C34",
"8. c #4B543C",
"9. c #4D5C3A",
"0. c #465636",
"q. c #515C3B",
"w. c #50593A",
"e. c #456223",
"r. c #4A6B23",
"t. c #47622B",
"y. c #4C632B",
"u. c #4A6925",
"i. c #516C2D",
"p. c #516E22",
"a. c #4C7222",
"s. c #527623",
"d. c #557C25",
"f. c #4D6233",
"g. c #4E6239",
"h. c #4E6935",
"j. c #526335",
"k. c #536936",
"l. c #53633B",
"z. c #55693C",
"x. c #5A6B3E",
"c. c #59733C",
"v. c #454541",
"b. c #464B42",
"n. c #4B4C44",
"m. c #4E4E4A",
"M. c #4D5343",
"N. c #4E5942",
"B. c #4E514B",
"V. c #515544",
"C. c #545C43",
"Z. c #52544C",
"A. c #555A4B",
"S. c #595D4D",
"D. c #585E43",
"F. c #555652",
"G. c #565953",
"H. c #5A5C54",
"J. c #5D5E59",
"K. c #504E49",
"L. c #556343",
"P. c #5A6444",
"I. c #5C6A43",
"U. c #566249",
"Y. c #5B634B",
"T. c #5D6A4B",
"R. c #576944",
"E. c #5B7146",
"W. c #5E6354",
"Q. c #5F6853",
"!. c #5F605B",
"~. c #61664C",
"^. c #626B4C",
"/. c #646D4A",
"(. c #64724C",
"). c #67784A",
"_. c #626554",
"`. c #646B53",
"'. c #696D55",
"]. c #63645B",
"[. c #666B5A",
"{. c #6A6C5C",
"}. c #69665E",
"|. c #667252",
" X c #6A7354",
".X c #6D7955",
"XX c #6C735C",
"oX c #6E795A",
"OX c #667058",
"+X c #71765D",
"@X c #737B5C",
"#X c #717B55",
"$X c #6B6D62",
"%X c #676862",
"&X c #6E7262",
"*X c #6E7961",
"=X c #727464",
"-X c #757A64",
";X c #797C65",
":X c #75766A",
">X c #767A69",
",X c #7A7C6C",
"<X c #7C7D71",
"1X c #598326",
"2X c #598516",
"3X c #75825C",
"4X c #7A8265",
"5X c #7E816C",
"6X c #788362",
"7X c #7E8172",
"8X c #81856D",
"9X c #848C6D",
"0X c #838769",
"qX c #828473",
"wX c #868973",
"eX c #8A8C75",
"rX c #838479",
"tX c #86897B",
"yX c #8B8C7B",
"uX c #8C9276",
"iX c #8E927B",
"pX c #8A9573",
"aX c #92947D",
"sX c #969A7E",
"dX c #908F7F",
"fX c #8E8F82",
"gX c #939582",
"hX c #969983",
"jX c #9A9C86",
"kX c #9B9D8A",
"lX c #989887",
"zX c #9EA18B",
"xX c #9DA185",
"cX c #9EA190",
"vX c #A1A38C",
"bX c #A3A592",
"nX c #A9AB95",
/* pixels */
"/ =./ Y.;./ C.Y.0XaX-X;X`.w.S.=X8X;X:X'.D.4.b.' p d d v.F.m.m.w v.v.v.F.%X%XH.].Z.' B.B.V.M.b./ 6.U./ 1.Y.'.$X;X=X`. X].Q.T.q.8 ",
"U.l.9. X,.-.7.7.9XvXkXvXiX=X0XlXlXwX,X+X/.'.Q.Y.G.G.F.G.J.J.F.q m.J.!.%X%X$XH.H.].B.G.!.G.b.N.8.9.[.N.N.`.XXtXaXgX;X;XqX4X-XXXp ",
"U.j.L.I.[ [ G L.9XjXkXnXkXaXhXlXkXlXwX;X-X/.6.C.!.F.B.G.F.J.F.q v.J.J.%X].A.Z.Z.A.S.S.N.N.N.9.N._.>XS.S.`.U.@X4X4X'.-X-X'.@X<Xh ",
"5.,.7.T.>.G W ^.wXvXbXvXzXlXsXkXkXsX5X,X{.q.*.&.M.F.F.H.J.J.J.q m.J.J.J.F.H.W.].}.'.8./ ` h.L.*X>X&X[.Q.Y.l.z.k.).R.R.D.q.~.'.e ",
"! ,.R.|./.j.(.;XaXlXkXsXwXeXeXkXjXiX8X+X~.l.6.6.N.B.F.G.!.!.J.w v.J.H.J.F.].%X$X7X&Xq.=.y.J =.{.>X<XXX0.;.y.u.r.I >.D 0.j.,.f.< ",
"; 7.|.l.z.6X9XeXaXaXiXiX@X0X8XeXlXkXeX+X/.;.~ D.H.G.F.F.J.J.F.w n.J.J.!.F.J.$X:X-X-X|.f.{ c w.S.XX:X@Xj.[ | @.T l ) I g.>.L H O ",
"; 7.>.f.I.#XpX8XaXeXsXeX@X@X5XyXkXgX5X-XY.&.6.V.A.Z.m.F.J.F.F.q n.J.J.H.F.H.:X7X7X>XXXT.*.&.'.yXqX-X3Xx.[ @.1XT c ~ 9.g.y.T J O ",
"l =.I k.j./.9XuXsXsX0X@Xl.'.8X;X5XiXyX5X=X`.~._.A.3.<.n.m.F.F.q m.F.G.F.F.J.7X7X;X>X+X;X'.-X<XeX>X|.9.0.e.T T L U A f.z.t.T e.+ ",
"N I -.f.F w.9XjXyXaX0X(.7.|.yXaXsXyX;X,XqX7X<X&X~.Z.2.K.m.F.K.w m.F.m.F.H.H.rX<X=XwX-X;XyXeX0XeX9X9Xj.[ u...Y n T } J -._ | u.- ",
"D D >.l.&.+XsXwX8XsX9X@X/.+XaXjXjXqX;X;X<XqXtX,X:X&X{.$X%X$XH.q v.%XF.F.A.&XtX$X=XqXtXiXqX;XeXeXaXaXx.L | X.v n s.} C K R R H o ",
"N A ,.P. XlXsXwXlXaX0X;X;X9XjXvXkXeX=X+X:X5X=X:X:X:X:X:X:XrX$Xw F.%XH.F.S.=X;X&X>X<XfXgX5XqXeX0XaX9Xl.H T R : n } H A R L z l 5 ",
"Z I { F #XjXjXzXkXeXaXyX0XiXwX8XeXeXeX+X{.:X}.S.}.$X$X:X:X<XtXr m.].&XZ.$X;X&X=X>XtXyXgXeXeXiXeXpX/.T.,.A N N J J l D U J c J + ",
": D G >. XaXkXkXaXwXgXaXgXqX8X-XwXeXqX,X=X=XrX;X}.{.$X=X<X<X<Xr G.tX=X'.,X,X=X$X=X,XtXlXeXwXeXwX4X X;X@X7.! 5.=.N ! ;.P V Z P = ",
"# ;.l.;.(.hXvXhXgXgXiX=X;X;X@X+X8X=X5XeX:X<XtX<X}.{.&X,X<X,XrXg :XgXqX=X[.`.{. X:X5XqXdXsXkXeXeX;X(.^.I.l.L.q.F 0.L.7.z.g.t._ & ",
"/ T.^.`.+X9XjXkXcXqX:X;XoX~.P.qXfXyXlX<X:XqX<X:X}.].,X:X}.<XtXj fXkXqX{.Y.XX+X=X-XqXyXwXlXvXlXyXeX#Xj.*.~ z.=./ R.T.h.h.u.| I + ",
"w t 2 p s <.3.n.3.g f ^ 8 < 4 3.4.4.K.s p f d g e d j d e g 2.s n.3.2.<.p <.<.s s 3.K.4.j Z.K.4.3.i < < & 8 + O y y y = 6 V 5 o ",
"! 0.^ 4.{.qX>XH.S.Z._.D.D.&.8.t 2.G.$X,XJ.n.K.Z.G.G.].H.V.Z.].$X=X=XF.v.Z.F.Z.H.].:X<XrXfX:X$Xb.V.b.y W 9 ( 9 5 ; ; , , N N 9 7 ",
"e.k.z.x./.8X8X+X:XeXiX'.^.q.R.0 A.qXtXqXtX:X{.}.{.]._._.[.-X5XtXqX&X}.$X,X<XqX<XyXlXdXgXbXcXcX3._.4Xl.L.l.9.` ) U J ..X.L m A -.",
"..J  .G ~ R.~.$X:XwX;X'./.7.6.% 4.4XXX[.5XtX{.H.S.S.C.8.&.w.=X,X<XG.H.&X<X7X7XgXkXdXdXlXvXhXtX2.P..Xk.I.j.,.P K R z [ U  .c P e.",
"H A z c Z ! _._.[.+X{.+XXXq. Xu V.-XqX=X>XtX+X~.N.M.M.1.s 4.!.!.].].H.F.J.$XfXkXyXkXdXlXbX5X-Xf C.T.-.t.A Z e.+. .c H n z z H U ",
"A A [ J ! 8.N.=X4X~.`.5X=X*X-Xa 3.,X5X{.{.+X~.T.9.N.V.<.<.b.b.v.m.F.Z.F.J.!.tX7XwXyXrXbXfX*XU.2 Y.T.A D I I [ X.n P D A J H n T ",
"H P P l ! Q._. Xl.I.P.#X7X4XT.2 K.,X'.q.z.k.,.:.g.Y.S.<.3.b.m.b.v.v.K.H.!.].7XiX5X8XtXgXuX|./ % Y./.~ ;.` l.t.z x D S ;._ H E X.",
"H B A Z 8.[.=X-Xz.>.F q. X-XXX8 s  X(.7.:.U K D 7.oX`.Q.M.3.<.M.v.n.V.F.G._.@X@Xj.q./.9X4Xg.` 0 8.P./. XOXoX:.! F ;.;.,.=.H m a.",
"N z A ! Z.{.9X3X/.) Z ;.C.XXqXp a '.j.,.f.I H B ) ;.q.P.U.3.] ] 4.n.F._.[.W.oX).U n  .c.h.n K + D 5.$XyX4X7.-.6.`.;X@X~.l.S I P ",
";.S F &.C.qX9X/.I.7.5.q.&X;XqXf 4.+X~.7./.>.Z ! ! D f.=.g.8.b.b.n.Z.J.].].A.I.[ n | O.L c { J # l S G.$X`.;.7.N.XXwX-Xl.0.0.Y.P.",
"9.Q 6.D.;XuX(.j.l.>.5.|.5X;X7X' ~.eX3XY.L.j.) ` _ y.i.c N ] b.b.4.F.!.$X{.D.f.H T r...B c ..H @ , W Z.S.Y.D.C.U.&X,X-XU.T.:X}.].",
"'.C.U.;XsX(.,.*.7.,.) R.+X;X8Xf W.9X4XD.6.,.I -.-. .m B V / <.4.K.H.%X%X^.T.f.X.| | @.H L L H @ , &.A._.].-X{.&XrX<X;X;X:X&X$X}.",
":X=X+X9X@XP.6.7.(.l.w.6.C.qXjXj S.8X-XP.q.7.-.I J J K H N / ' M.F.!.J.S.9.u.u.e.+.#...R ..X.U @ # &.H.Z.$X}.W.$X:XfXqXqX0X'.'.-X",
"XX-X.X.Xy.f.~ l.j.-.,.7.`.;XyX3.S.5XXX~.q.z.) B A z J J B W 3.n.Z.G.G.C.;.} U H ..M K U T | T # & N.U.A.H.Q.{.:XdX9X`./. Xq.T.XX",
"y.i.e.H c A _ ,.J v A F '.;XtXn.{.wX;X`.~.|.) I H A H N 6 / b.b.M.B.M.M.:.[ H n T I z L | }  .# % 4.A.Q.`.Y.>XgXeX.XP.-.[  .{ -.",
"L [ L U A W ! S F Z Z / `.:X{.2._.;X;X<X;XXXT.! S 9 W S W 2.] v.m.m.b.1.6.y.J A U J [ X.+.a.N O t M.A.9.q.P.5X;X-X3XI.p...J L [ ",
"5 $ + = o o e 8 O O O 4 2 < u s p 2 u j a 2 2 O   O 2 &   . * q q 1 q % O X @ + $ $ : C C # - o % 8 < X 7 9 i t 8 9 0 : $ @ : l ",
"6 $ k ; & 6.}.=XC.M.V.8.W ~ P.`.N.5.N.U./ / 5.Q / S.H.V.3.' g e p v.v.3.9.I B l N l A # # + C N N 9 6 > 6 & W P n V W N N l H : ",
"C K  .K I R.Y.Y.Y.R.XX;XU.9.P.`.l.-.` :./ k./ P. X'.=X<X%XZ.G.w g F.A.U.c.s.o.+.+.U H N U L R  .n P I H H J e.s.o.H e.=.H O.X.; ",
"n +.@.T I *.w.q.g.-.I.-X^.9.9.(.x.A B ) g.;.q.`.[.>X5X=X%X].G.2 h B.U.k. .a.| X.Y K N l K b m m K R J B U H H R m A B [ +.2Xp.5 ",
"| ..T U 7 &.P.,.J A ~ L.-XR.,.q.I.D -.z.7.Y.@X'.Y.;XXXY._. XH.4 h A.^.>._ U m  .L L : Q P v r.L K J l D ` :.) J A N P p.s.@.X.# ",
"p.} n N u ~.I.{ K B N 0.-XT.;.D..X7.D ~ ~.0X8XtX-XT.~.q.w.w.&.% 3.`.|.z.:.B H L L v 7 M./ P u.A H C V 9.U.[.oX;.> ,.[ { a.M r.# ",
"[ M k 7 w.,Xj.{ I V ~ l.XX^.R._.`.R.=.>.(.tXfX+Xl.7.;.&.0.F ,.4 M.^.q.7.` ! D H U B ` 9.;.F c B A 9 N.[.Y.=X7XXX'.pX XI z M R # ",
"L R [ A Y.;X^.,.N ;.7.&.T.l.L.`.^.q.F =.l.+X5Xj.P J P ~ 0.,.>.5 i z.j.;./ ` ~ A N S ;.F I F S S V W N.%X$X>XfXlXaXeX0XP.,.A n , ",
"l P N 7 /.,X&XD.7.k.F F 7.;.g.q.~.x.[ I j.#XR.) J J H G 0.0.j.< 9 R.&./ 8.1.L.0.5.Y.7.z Z Q ] 9.<.8.N.W.{.7XlXgXyXhXtX8X5Xl.D 5 ",
"; V 9 q.;X,X<X-X/.I c *.6.7.=.,.=.y.J c *.(./.,.H U A z ~ ;.f.= 9 T.q.8.S.Q.[.Y.C._.R.I W ' b.H.M.A.8.U.Y.XXgXtXzXzXjXaXdXuX3Xi ",
"C.oX_.=X=X:X8X{. X;.Z { 7.;.R.l.,.[ n D 6.{.@X/.) D ! ! 9.f.I = V -.L.A.C.{.$XN.0.-.f.:.0.4.N.B.G.H.A.U.5.Y.wXiXxXaXkXfXaXvXlX^ ",
"XX5X5X5X,X;X,X'.;X Xj.y.,.z.7.>.j.=.D ~ `.=X{.6.f.-.y.(.R.) F O , P 0.C.H.W.H.N.g.=.P ) 4X].G.Z.B.A._.*XU.`.=X=X;X5XsX0XuXaXlXA.",
"Y.8XeXfXtXqX8X:X5X8X4Xj.D k.j.*.q.R./ Q |.`.8.&.Z P G _ 7.h.7.& ; G ! 9.{.W.A.L.;.e.I ) T.Y.M.b.!.{.Q.OX X`.V.N.A.`.;X3X).j.4X`.",
"^ '.0XaXfXiXtX:X:X<XeX#X=.R.(.(.|.XXD.V.A.S.A.8.! P Z H I =./.f 8 *.8.S.Y.q.0.9.=.H K P ;.C.4.3.W._.q.L.7.Y.C.8.8.|.#Xi...J >.5.",
"i '.0X9XaXkXyX:X<X,X-X@X7.j. Xz.).(./.*X{.'.|.0./ ! H U z A :.y 3 w.Y.S.q.=.,.=.-.A P z ! N.3.8.M.N.D.P.q.8.4.1.6.).i.L L b  .; ",
"&.;X4XeXkXvX8X}.{.{.&X`.k.l.Y.j.R.T.*X7X*X XY.C.M.Q ) e.T ..G o s H.]._.7.U M H U  .r.} P ;./ / 3.A.].`.^.Y.3.^ 6.z._ L U | p.X ",
"8 9 s <.n.n.s 3 t e p 8 5 5 < 0 t a p a ' ' u t e % @ # N $ o % 2 3 p s 2 o @ # # 6 : : < 5 < 2 t p a t 8 3 . . 3 9 5 $ $ B N o ",
", > W V.}.{._.~.w.4.6.=.G : S + <.C.A.0.^ W 0.Z.V.^ G P B H N Z W 8.Z.K.3.^ 9 7 > k B : 7 + 2 * 0 V V V D > V 9 1.Y.~ > z  .z Z ",
"L A *.5XyXqX5X+X Xl.u.+...U e.+ 1.9X6XL.l.q.j.T.Y.;.L L H K K b D ^ V.].}.J.N.! D M X.H z ) Q.& W U  .X.s.O.} c ~ x.u.{ ..O.| A ",
"B 9 V.+X,X,X8X8X X(.i.o.| | [ X V E.E.f.T.7.! ;.` ~ { L n A P v I 9 B.A.].W.Z.W.C.H V 6 / C.`.0 Z | Y @.#.T E R c e.....K L n z ",
"N 8.{.;X,X:X{.eXaX@Xk...+.U M $ I T U -._ 7.;.S ! I [ L l D P D Z / 9.8.w.R.N.N.8.6.;.;.f.0.5.+ D L } | ..Y T  .A e...L  .R I k ",
"V 8.W.}.}.~.+X;X0X|.) R T | a.:  .#.+.R A F ) ~ ! D G Z 9 ;.;.D / 5.:.) J -.;.;.;.8.>.y.R H -.O N } | r...n L T x J R n B z x k ",
"/ U.].!.}.-XwX#X).@X(.e.L X.s.C J #. .K H A H D ! / Q ^ <.M.Y.~.g.:.-.H R J A n J _ d.#.Y T P @ $ H J X.| J H K H T R I k B A D ",
"` [.=X].>X8XtXeX~.@XpXk.L m +.6 z +.} [ B H z D ~ &.4.<.N.F.=XXX5.) J H L K K T Y @.@.%.@.a.A - + -.L m  .x z T L  .R B P _ J ) ",
"V.-XtX=X,X<X8XdX,XaXpXf.K e.| $ D d.d.U J T A z Z / V.b.Z.{.>X$XT.,.T J R T T r.+.1X@.a.d...J + V -.P J H : F L H T K z H I H B ",
"A.-XfXgXyXwXiXsXaXvX9X,.n R  .# B X.n B H Y b J Z 4.G.3.n.}.=X].T.,.H z e.K Y @.#.#.| +.#.O.X.: 6 I G A Z S ~ B A z R J A G D ~ ",
"S.<XwXzXnXzXnXnXvXhX9Xk.m  .T : B Y n z [ } J [ 9 Z.Z.K.V.!.H.m.C.,.H D J K r.+.@...M a.+.O...# > A ) >.5.&.W / ) H R A Z F 6.q.",
"&X>X7XaXzXlXvXnXsXwX@Xt.K L K # B  .r.H J H A > i n.Z.F.J.J.Z.m.M./ D V ) U e.T R z H L X.+. .# > H S Y.[.Y.&.q.g.7.I V / Y.+XW.",
"5X;X5XaXkXiXxXnXjX@XI.-.H n B - P E K x N S 9 s 4.Z.V.K.F.Z.Z.Z.n.b.3.5.R K H B k P z H } L J @ $ V 9 V._.'.+X-XoXY.D.6.Y.{.:X<X",
"-X;XyXaXeXpXvXnXsX@Xl.,.H n P @ A U l : 5.8.8.Z.S.Z.b.n.m.F.F.F.G.B.A.9.U K B I H A N I I c J + 5 / 8.H.{.=XiX;X4X+X~.C.`.7X-X=X",
"XX*XwXwX-X0XvXvXsX4X.XI.f.A D O > Z ! C.Q.Q.S._.G.G.Z.K.J.J.J.F.H.H.!.C./ N _ J z S / ~ S Z A o y b._.XX&X:X+X0XeX;X=X'.-X5XXX[.",
"L.C.Y.6X5X5XlXjXeXqX8X4X(.F / t 8.~.{.=X*XA.n.Z.J.J.F.F.!.!.F.F.J.J.G.H.S.C.1.9 <.<.8.3.M.<.( % i V.}.{.:X:X;XeXtXuX-X:X,X`.A.T.",
"O O & W a u <.4.f j g <.i 8 2 e <.' f s u 4 1 q w r q d g h h d d r q r r p 4 e q 1 2 e 1 1 4 . 4 e u e d s n.~.{.S.<.2.t w & & "
};
