/* XPM */
static char *_0129_65c90c7b5f74bf3812d7b85af38e7b080bafe6fadf59512aa91277de8cf30e91[] = {
/* columns rows colors chars-per-pixel */
"64 64 84 1 ",
"  c #634339",
". c #6A4339",
"X c #6F4A3E",
"o c #73463C",
"O c #75493D",
"+ c #7B4A3F",
"@ c #744D43",
"# c #7D4C41",
"$ c #7C5246",
"% c #7E5348",
"& c #79625A",
"* c #7B6560",
"= c #7E6B64",
"- c #824D42",
"; c #845143",
": c #8C5445",
"> c #81554A",
", c #8E5648",
"< c #84584C",
"1 c #8D594B",
"2 c #955546",
"3 c #9C5747",
"4 c #9C5947",
"5 c #925649",
"6 c #9E5649",
"7 c #935B4D",
"8 c #9E5A4A",
"9 c #8D5C51",
"0 c #915E52",
"q c #9B5F51",
"w c #A05847",
"e c #A1574B",
"r c #A15B4A",
"t c #A55F50",
"y c #9A604F",
"u c #8E6152",
"i c #936355",
"p c #9B6151",
"a c #A5604C",
"s c #AD614E",
"d c #A26454",
"f c #AD6352",
"g c #AB6857",
"h c #A96758",
"j c #AB6959",
"k c #B26553",
"l c #B36855",
"z c #B86955",
"x c #B56858",
"c c #856F65",
"v c #856E68",
"b c #886F68",
"n c #87736A",
"m c #8A736B",
"M c #8F7A6F",
"N c #897670",
"B c #8C7B73",
"V c #917D73",
"C c #937E79",
"Z c #8E8077",
"A c #968177",
"S c #94837C",
"D c #9A847D",
"F c #9E8A7F",
"G c #978681",
"H c #9E8781",
"J c #968881",
"K c #9D8A81",
"L c #A28D86",
"P c #A59088",
"I c #AC988E",
"U c #B9AFAB",
"Y c #BBB1AD",
"T c #BFB5B1",
"R c #C1B6B2",
"E c #C6BBB6",
"W c #C6BDB9",
"Q c #C8BEBA",
"! c #CBC2BE",
"~ c #CEC4C0",
"^ c #D0C7C2",
"/ c #D3C9C5",
"( c #D7CDC9",
") c #D8CECA",
/* pixels */
"pppyy7y7yyyy!WWWppppppqqi77ihdddittqhhddiuyy!!!!uyypddddidqqqqqq",
"7pypyu7uyypyZ!WW8pppppqqq077hdidiqiqhiddyy1uZ!!Wiipphddddqqqqqqq",
"yyypyuy7yyypJWWW7pyypqqpiy1ijtdttqqqhhddpu7uS!W!pqppdddtdqqqqqqq",
"p7iyy77ypypyZWWWpyyyppqqy777jqdqdpqqddpdi177F!!!ppqpddqtiqqqqqqq",
"uuuuuuuuiyyuJ!!!ggggiu1u<<<<99<<i9u9uuuui1u1J!!!qqqp900099990999",
"%%%%%%%%u<<1J~!!dddgi%%%$@@@@@@@&%%%%$$$<<$<J!!Wqdqq9%%%%%-%>>%>",
"%%%%%%&%11<1L!!!dddhi$$%$@@@@@@@%$%%%@$$<<%$J!W!qpqq9%%%%-%%-%%-",
"%%%%%%$$111<L!!!fdddi$$$$@@@@@@ >%%%$$@$&%%&JW!!pqtq0%%%%%-%>%%%",
"%%%%iyyy<%%%BTTWddpdi%><<%%%%%$$>$%%%%$%%%%%JW!!9999heee9@%%eee0",
"%%%%y771<@@@J!W~yyqq9%$>%%%%$@@$%%%$%%$%$$%$J!!!>%%%09999%@%0999",
"%%%%y711&@@@JWWWyyqq9%%$%%$$$@$@%$$$$%%$%$$$S!!!%%>%0099>%##999e",
"%%%$i7&&<@@@ZWWWp7pp9%%%$$$%$@@@%$$$$$$$%$%%Z!!!%%>>0ee99#%%ee-9",
"ZBnBNNNZNNBBBWW!=NNnBmnMNBBnBNNNnNMnBNBNBnnMZ!!!*NNNNNNNNNNNNCCC",
"TTTTTWYTYTTRT!W!YTTRTRTRTTRRTTTTTTRRTTRTTTTT!!!!TTTWTTWTTTTTTWTW",
"RRTRTTTTTTTTR!!WYRRTRRRRRTRRTTTTTTTTRRRETRR!E!!^YTTWTWTTTTTTTTWW",
"RTRRTTTTTTTTWW!!YTRRRRRRRTERTTTTTEETRRRRRRRRE!!^UTTTTTTWTTTWTWWW",
"<u11dyyyy8yy8pyyyyyp7778pppyEETWdpdppdppdpppqppyeqqqqqqqqqqqRWEW",
"1111dyyyyyy7qpyy7yypy77ypyyqB!!!dpaddpdaypdpqprp0eqqqeqqqeqqNQQ!",
":1::a444yw486888w88r6224a886K~^^raaaaaaarrrrwrwreeeeeeeeee6eL~^^",
"::::a4wy888r8848r88r6222rr86F~~^rrrararrrrrrrw4weeeeeeeeee66H~^^",
"aaaa2111fr8412:1:::;7::1::,,K/~^aara57,15,,,2,5,995555555:,:H^^^",
"w4ww2+++sw461+++@Xoo;++O++#OF^^^w644:++++OOO++++#ooo#oo#####L^//",
"44w41+;+s444:+++OXoo#+++O++@H~^^rrw4:++++++O#+++o#oo########L///",
"6w441;++s4441++++..o$++++++#K~^^44wr:+++OO+O+++O#ooo##o##o##L///",
"6446<XXOg222:++O--#;OOoO;+#+L!^^aaaa2OO+--;;+O+++----+++o#++C^^^",
"4664$   y;;;+oOO-##+O...;+++L///aaaa:oOO-++-+++O+++++++++#+#LQ^^",
"4646<   4:::-Ooo;+#@O...;++OL///rrsa2oO+----+++O+-++++++++++LQQ/",
"646w<  .y;::-OO+;+++O...;+++A///aaaa:OOO--+-++++++++++--++++M/Q/",
"nnncnncncmcmcccmnnbmbNmmnmmmM!^!ummmmmmmbbmmmmmmbmmmMmmmmmmmV!//",
"EEEEEEEE!!R!R!EEEEEEEWEWEE!E!/^~TEEEEEEEEEEEEQEEEEEEEEEEEQQEQ(//",
"EEEEEEEERR!R!!REEEEEEEWEEQEE!~^/T!!EEEEEEEEEEEEQEEEEEEEEEQEQQ///",
"EEEEEEEE!RR!!R!REEEEEWEEEEEE!^/!TEEEEEEEEEEEEEEQEQEEEEEQEEQQQ///",
"ry8888r48888!W!W4646r4wyaaa8kssfaya84wwa4r6r!!!!4wwwrrwrxkss6-+#",
"r8r8r688886wB~~~6464rawwaayakfffawrrry448rr4M!^!wwrw8rr8zfssq#++",
"8r8r6844867wS~~~46448844rrrakfffawr4r6wrw6wwD!^/w6r6wrewzssk6+++",
"888r48448844S~~~6444a8a4raarksafawrarr48ww43F//!rrrwwwwwzsss6-#+",
"7711u7:y1,,,C!~Q4334::11,1,1777yy22372222::2VQQQ8wwr553265665##+",
"+$;+++++$+;+C~~~33331+++++++++##:-;-::::-+++F^^^wrrw2;;;-+++##++",
";++++;++++++S~~!3333:+++++++++++:;--:::;-++-FQ!^www65;;;##++++++",
"+$+;$+;$++$+S!~^2332:++O++++++++;---:;;;-+++F^^!r6r62;;--+++++o+",
"y742;++$2:2:S!!!ww8r,+++@XoX;#+O++++:--;;+++V!^^ww662------:-+++",
":::2;+++2:::P//(68rw,+O+.   ;++++ooo;++++O++F!^!wwe62+++-----+++",
"2:2:<+++2;;:P/(/wwr6:+++X  .;++++ooo;+##++++F!/!ww66:+++-----+++",
"::::<+$+2::2M(//888r,+++@  .;#+++ooO;###-+-+A!!/ww6e2+-------+-+",
"bbbcnccccbbcb!!!9bbmnmbmmmmmmbmhnnnmmmmmcmmmM!/!&bmmmmMmbmbbbbmm",
"EEEE!EE!REEEQ!!/REEEEEEEEEEEQQQEEEE!EEEEE!R!!!!(RRQQEEQEEEEEREEQ",
"EEREEEEEREEEQ^!!REEEEEEEEEEEEEQE!EEEE!EEEE!R!!(!RQEEEQQEEEEEEQEE",
"EEEEEEEREREEQ!!!REEEEEEEEQEEQEQQEEEEEEEEEER!!!!(REQEEQEEEEEEEEEE",
"wwww88raaararrwwww4wyww64222QQQQ3446xfffr86ee66ee6666e6eeeee!Q!!",
"ww4a8r88aatarrwww4r8wwww4322MQ^Q3626kffft6re66eee666eee6eeeeC())",
"88w8888raadar6wrww44w8r43223C/Q!3326xffgte6q66ee6636eeeeeeeeI())",
"8rr88r8wdrttr8r644aar8883322CQ/Q3366xffkre6666ee6363eeeeeeeeI())",
"88wr111,11yy71,12:,,::22:;:;A!/Qwrre777741,,55::-2222:225552A!!!",
"88487+;++++++++++-++++++ooOOC!!!r6r61+++#++++++++++-+++###-#F^//",
"8888,++++++++++++++++++++oooCQ!!8e68,++#++++#++++##++-###--#F!!/",
"8w66,+;++++++++++++++++++oooD!!!686e,++#++++#++++#++-####--:F//!",
"4444:OOOy;;:++++++++++++----C~~Qe66e,###+++#++++-+--+--+-#+-H^^^",
"ww44:OOO:;;;;+++++++++++++++H~~^eq6e,###++++++++--+--+++#---H^^^",
"444a:OoO2;;;;++++++-++++++++C^^^e66e5oo##++#++++++-+++-+-+--L^^^",
"r444:OOO1;;:;++++-+-+++++++-M^Q^6eeq,-o#+++#++++-----+-----#M^^^",
"nccniccccuccZccZbbbmmmmMbmbbV^!!cmmmbbmmbbNmmmmmimmmbbmmmbbbb~Q~",
"EEEER!!!!!!RR!R!EEEEEEEEEEEQQ^^^RQEQWEQQEEEEEEEEEEQEEEEEEEEEQ~~~",
"REREYR!Y!Y!T!R!REEEEEEEEEEEEQ/^^REEEQEQEEEEQEEQEEEEEEEEEEEEEE^Q^",
"EEEE!TT!Y!Y!Y!T!EEEEEEEEEEEEQ!!!REEEEEEEEEEEEEEEEQEEEEEEEEEEEQ~~"
};
