/* XPM */
static char *_057_873f660ec0eaa421afcd66c05d989202c5785ad8e3a4f5b1b3102421a402456d[] = {
/* columns rows colors chars-per-pixel */
"64 64 125 2 ",
"   c #007B3A",
".  c #DE2B19",
"X  c #DE3617",
"o  c #DE3618",
"O  c #DE4718",
"+  c #CC4D27",
"@  c #C64F2D",
"#  c #CA4D29",
"$  c #9A7653",
"%  c #917D5D",
"&  c #AE7342",
"*  c #0E8136",
"=  c #168434",
"-  c #3D932A",
";  c #228931",
":  c #2B8D30",
">  c #6DA51F",
",  c #71A71E",
"<  c #4E9A26",
"1  c #3B9A69",
"2  c #7D876D",
"3  c #758B73",
"4  c #6C927E",
"5  c #739C76",
"6  c #7FB96E",
"7  c #69AF7E",
"8  c #6DB27C",
"9  c #75B475",
"0  c #79B672",
"q  c #7DB970",
"w  c #71B379",
"e  c #91B417",
"r  c #9AB615",
"t  c #9CB812",
"y  c #A7BC12",
"u  c #9FBF3F",
"i  c #B4C10D",
"p  c #B9C733",
"a  c #BECB36",
"s  c #B6C83D",
"d  c #BAC93A",
"f  c #C3C60C",
"g  c #DDCF05",
"h  c #DCD31C",
"j  c #E7D404",
"k  c #EBD60F",
"l  c #EDD80E",
"z  c #F6D605",
"x  c #FCD600",
"c  c #F6DB07",
"v  c #FEDD00",
"b  c #F2D90A",
"n  c #E5D615",
"m  c #EAD711",
"M  c #EAD811",
"N  c #E2D518",
"B  c #C5CA26",
"V  c #C5CB2F",
"C  c #CACC2C",
"Z  c #D0CF28",
"A  c #D2D124",
"S  c #C4CC31",
"D  c #998753",
"F  c #959255",
"G  c #8FBB5F",
"H  c #9ABF55",
"J  c #94BD5B",
"K  c #A2A04D",
"L  c #A2BE4E",
"P  c #A0BE50",
"I  c #8AAE62",
"U  c #8DBB60",
"Y  c #83B96A",
"T  c #91BD60",
"R  c #9DC153",
"E  c #ACC545",
"W  c #A3C24C",
"Q  c #A9C44A",
"!  c #B2C641",
"~  c #389E8C",
"^  c #22989F",
"/  c #1F97A1",
"(  c #1F9DBF",
")  c #3D92A6",
"_  c #2A9FB6",
"`  c #249EBD",
"'  c #299EB9",
"]  c #309DB0",
"[  c #3DA5A6",
"{  c #35A3AD",
"}  c #39A3AA",
"|  c #2DA1B4",
" . c #29A0B8",
".. c #31A1B2",
"X. c #478C9D",
"o. c #479F9D",
"O. c #629387",
"+. c #5FAC86",
"@. c #57AD8F",
"#. c #5BAE8C",
"$. c #4EA996",
"%. c #46A79F",
"&. c #4AA79B",
"*. c #47A89D",
"=. c #4BA99A",
"-. c #53AA93",
";. c #59AD90",
":. c #62AE86",
">. c #69AF81",
",. c #61AF88",
"<. c #65B182",
"1. c #69B180",
"2. c #4393A1",
"3. c #42A6A2",
"4. c #0F98CF",
"5. c #1C9BC4",
"6. c #1197CD",
"7. c #1499CB",
"8. c #189AC8",
"9. c #0795D7",
"0. c #0B96D3",
"q. c #0E98D1",
"w. c #0094DE",
"e. c #209DC1",
"r. c #3BAFE6",
/* pixels */
"r.r.r.r.r.r.r.r.r.r.r.r.r.r.r.r.r.r.r.r.r.r.r.r.r.r.r.r.r.r.r.r.r.r.r.r.r.r.r.r.r.r.r.r.r.r.r.r.r.r.r.r.r.r.r.r.r.r.r.r.r.r.r.r.",
"w.w.w.w.w.w.w.w.w.w.w.w.w.w.w.w.w.w.w.w.w.w.w.w.w.w.w.w.w.w.w.w.w.w.w.w.w.w.w.w.w.w.w.w.w.w.w.w.w.w.w.w.w.w.w.w.w.w.w.w.w.w.w.w.",
"w.w.w.w.w.w.w.w.w.w.w.w.w.w.w.w.w.w.w.w.w.w.w.w.w.w.w.w.w.w.w.w.w.w.w.w.w.w.w.w.w.w.w.w.w.w.w.w.w.w.w.w.w.w.w.w.w.w.w.w.w.w.w.w.",
"w.w.w.w.w.w.w.w.w.w.w.w.w.w.w.w.w.w.w.w.w.w.w.w.w.w.w.w.w.w.w.w.w.w.w.w.w.w.w.w.w.w.w.w.w.w.w.w.w.w.w.w.w.w.w.w.w.w.w.w.w.w.w.w.",
"w.w.w.w.w.w.w.w.w.w.w.w.w.w.w.w.w.w.w.w.w.w.w.w.w.w.w.w.w.w.w.w.w.w.w.w.w.w.w.w.w.w.w.w.w.w.w.w.w.w.w.w.w.w.w.w.w.w.w.w.w.w.w.w.",
"w.w.w.w.w.w.w.w.w.w.w.w.w.w.w.w.w.w.w.w.w.w.w.w.w.w.w.w.w.w.w.w.w.w.w.w.w.w.w.w.w.w.w.w.w.w.w.w.w.w.w.w.w.w.w.w.w.w.w.w.w.w.w.w.",
"w.w.w.w.w.w.w.w.w.w.w.w.w.w.w.w.w.w.w.w.w.w.w.w.w.w.w.w.w.w.w.w.w.w.w.w.w.w.w.w.w.w.w.w.w.w.w.w.w.w.w.w.w.w.w.w.w.w.w.w.w.w.w.w.",
"w.w.w.w.w.w.w.w.w.w.w.w.w.w.w.w.w.w.w.w.w.w.w.w.w.w.w.w.w.w.w.w.w.w.w.w.w.w.w.w.w.w.w.w.w.w.w.w.w.w.w.w.w.w.w.w.w.w.w.w.w.w.w.w.",
"w.w.w.w.w.w.w.w.w.w.w.w.w.w.w.w.w.w.w.w.w.w.w.w.w.w.w.w.` :.L V Z V S I $.7.w.w.w.w.w.w.w.w.w.w.w.w.w.w.w.w.w.w.w.w.w.w.w.w.w.w.",
"w.w.w.w.w.w.w.w.w.w.w.w.w.w.w.w.w.w.w.w.w.w.w.w.w.w.5.J k v x v z x x x z h 9 0.w.w.w.w.w.w.w.w.w.w.w.w.w.w.w.w.w.w.w.w.w.w.w.w.",
"w.w.w.w.w.w.w.w.w.w.w.w.w.w.w.w.w.w.w.w.w.w.w.w.w.] h v v x v x v x x v x v v ! 7.w.w.w.w.w.w.w.w.w.w.w.w.w.w.w.w.w.w.w.w.w.w.w.",
"w.w.w.w.w.w.w.w.w.w.w.w.w.w.w.w.w.w.w.w.w.w.w.w.} l v v x v v x v v x v v x v v S 4.w.w.w.w.w.w.w.w.w.w.w.w.w.w.w.w.w.w.w.w.w.w.",
"w.w.w.w.w.w.w.w.w.w.w.w.w.w.w.w.w.w.w.w.w.w.w.7.A v v v v v v x v v c v v x v v x T w.w.w.w.w.w.w.w.w.w.w.w.w.w.w.w.w.w.w.w.w.w.",
"w.w.w.w.w.w.w.w.w.w.w.w.w.w.w.w.w.w.w.w.w.w.w.J v v v x v v x v v v x v v v x v v b { w.w.w.w.w.w.w.w.w.w.w.w.w.w.w.w.w.w.w.w.w.",
"w.w.w.w.w.w.w.w.w.w.w.w.w.w.w.w.w.w.w.w.w.w.` m v v x x v v x v v v v x v v x v v v R w.w.w.w.w.w.w.w.w.w.w.w.w.w.w.w.w.w.w.w.w.",
"w.w.w.w.w.w.w.w.w.w.w.w.w.w.w.w.w.w.w.w.w.w.w v v v x v v v x v v v v v v v v x v v A 7.w.w.w.w.w.w.w.w.w.w.w.w.w.w.w.w.w.w.w.w.",
"w.w.w.w.w.w.w.w.w.w.w.w.w.w.w.w.w.w.w.w.w.w.! v v v x v v v x v v v v v v v v v v v b { w.w.w.w.w.w.w.w.w.w.w.w.w.w.w.w.w.w.w.w.",
"w.w.w.w.w.w.w.w.w.w.w.w.w.w.w.w.w.w.w.w.w.q.N v v v x v v v x v v v x x v v v v v v v -.w.w.w.w.w.w.w.w.w.w.w.w.w.w.w.w.w.w.w.w.",
"w.w.w.w.w.w.w.w.w.w.w.0.{ 8.w.w.w.w.w.w.w.e.h S V b x h S h x m s s k z S W A v A W A 1.w.w.w.w.w.w.w.w...` w.w.w.w.w.w.w.w.w.w.",
"w.w.w.w.w.w.w.w.w.w.w.<.v A *.w.w.w.w.w.w. .w 9.9.} P 5.9.5.J { 9.w.;.w 9.w.e.R 7.w. .;.w.w.w.w.w.w.q.R b A 9.w.w.w.w.w.w.w.w.w.",
"w.w.w.w.w.w.w.w.w.w.w.1.v v N -.7.w.w.w.w.9.9 9.w.w.0 w.w.w.,.7.w.w.%._ w.w.q.<.w.w.3.{ w.w.w.w.w.{ R v v A w.w.w.w.w.w.w.w.w.w.",
"w.w.w.w.w.w.w.w.0.0.w.[ v v v v S  .w.w.q.w.;. .w.w.w 9.w.w.-.e.] 7.-.` w.w.=...w.9.8 w.9.q.w.w.Y b v v v E w.w.7.w.w.w.w.w.w.w.",
"w.w.w.w.w.w.w.w.Q S ( 0.N v v v v ! q.=.A ;.7.1.w.w.} } w.w.3...D 2.#.5.w.w.9 9.w.` @.8.d Q 9.@.b v v v v ,.9.q A { w.w.w.w.w.w.",
".. ... ... .' ..h v R | ! v v v v c 1.R v N 3.R 4.w.6.1.w.w.} ;.@ % :.6.w.w.q w.w.1.*.R v h *.A c v v v c 3.=.b v 9 | | | .. . .",
"c b c c c c c c v v v c v v v v v v v v v v v v @.w.9.9 o.O.F D X # K 4 O.{ 1.w.0.A c v v v v v v v v v v c c v v c c c c c c c ",
"v v v v v v v v v v v v v v v v v v v v v v v v s w.w.8 ' & . . . . . O 3 =.{ w.*.v v v v v v v v v v v v v v v v v v v v v v v ",
"3.! M c c v v v v v v v v v v v v v v v v v v v v  .w.3.{ 9.2 o . . + X.w.8 9.w.W v v v v v v v v v v v v v v v v v v v v c c Z ",
"w.w.9. .3.w A c v v v v v v v v v v v v v v v v M Y w.8.,.w.X.o . . @ 6.w.0 w.5.N v v v v v v v v v v v v v v v v c l Q *.{ 8.w.",
"w.w.w.w.w.w.q.} -.1.T E n v l M v v v v v A s c -.q 9.9.w w.D + 3 $ O ) 4.8 w.+...A h Q c v v v v c N v c a R q ,.3.e.w.w.w.w.w.",
"w.w.w.w.w.w.w.w.w.w.w.w.[ A =.e.A v v v v T 9.q 5.| @.w.8 ( F I w.5.K 5 [ } 9.9 w.1.| | M v v v v ,.q.a R 9.w.w.w.w.w.w.w.w.w.w.",
"w.w.w.w.w.w.w.w.w.w.w.w.w.q.w.w.3.M v v v N  .w.w.w.6 w.*.} q.w w._ $.6.8 q.{ 3.w.w.w.R v v v v R 9.w.0.w.w.w.w.w.w.w.w.w.w.w.w.",
"w.w.w.w.w.w.w.w.w.w.w.w.w.w.w.w.w.q v v v v R w.w.w.@. .( @.w.1.0.{ [ w.w 9.9 9.w.w.[ c v v v A 5.w.w.w.w.w.w.w.w.w.w.w.w.w.w.w.",
"w.w.w.w.w.w.w.w.w.w.w.w.w.w.w.w.w.q.! v v v c } w.w.6.w q.8 w.#.7.3...q.8 4.8 w.w.0.s v v v b 3.w.w.w.w.w.w.w.w.w.w.w.w.w.w.w.w.",
"w.w.w.w.w.w.w.w.w.w.w.w.w.w.w.w.w.w.| h v v v a 0.w.w.8 6.8 9.-.5.$.` } 3.#.5.w.w.@.c v v v q w.w.w.w.w.w.w.w.w.w.w.w.w.w.w.w.w.",
"w.w.w.w.w.w.w.w.w.w.w.w.w.w.w.w.w.w.w.$.b v v v @.w.w.| -.&.] &. .-.` :.8.0 w.w.7.A v v v W q.w.w.w.w.w.w.w.w.w.w.w.w.w.w.w.w.w.",
"w.w.w.w.w.w.w.w.w.w.w.w.w.w.w.w.w.w.w.9.q c v v h 4.,.e.9  .-.3.{ #.5.8 } $.;.` q v v v C ( w.w.w.w.w.w.w.w.w.w.w.w.w.w.w.w.w.w.",
"w.w.w.w.w.w.w.w.w.w.w.w.w.w.w.w.w.w.w.w.9.W v v v A v w -.3.>.} } :.5.8 w 5.b h b v v n ..w.w.w.w.w.w.w.w.w.w.w.w.w.w.w.w.w.w.w.",
"w.w.w.w.w.w.w.w.w.w.w.w.w.w.w.w.w.w.w.w.w.7.Z v v v v R 8.8 7 { &.>.3.-.8 ..v v v v c #.w.w.w.w.w.w.w.w.w.w.w.w.w.w.w.w.w.w.w.w.",
"w.w.w.w.w.w.w.w.w.w.w.w.w.w.w.w.w.w.w.w.w.8.! v v v v h T ! ,.$.-.w ,.9 Q Q v v v v l =.w.w.w.w.w.w.w.w.w.w.w.w.w.w.w.w.w.w.w.w.",
"w.w.w.w.w.w.w.w.w.w.w.w.w.w.w.w.w.w.w.w.9.a v v v v v v v v Y :.:.8 8 S v v v v v v v c [ w.w.w.w.w.w.w.w.w.w.w.w.w.w.w.w.w.w.w.",
"w.w.w.w.w.w.w.w.w.w.w.w.w.w.w.w.w.w.w.w.w.;.U U U U T U U U R 0 9 8 H H G G U U U U G Y 8.w.w.w.w.w.w.w.w.w.w.w.w.w.w.w.w.w.w.w.",
"w.w.w.w.w.w.w.w.w.w.w.w.w.w.w.w.w.w.w.w.w.w.w.w.w.w.w.w.w.w.-.P J U E 5.w.w.w.w.w.w.w.w.w.w.w.w.w.w.w.w.w.w.w.w.w.w.w.w.w.w.w.w.",
"( / / / / / / / / / / / / / / / / / / / / / / / / / / / / / ~ S B p u ^ ^ / ^ ^ / / / / / / / / / / / / / / / / / / / / / / / / ",
"                                * *                           e j g -                                                           ",
"                                                              - z f *                                                           ",
"                                                                f ,                                                             ",
"                                                              ; t >                                                             ",
"                                                              < i e *                                                           ",
"                                                                y <                                                             ",
"                                                              = i :                                                             ",
"                                                                r ;                                                             ",
"                                                                *                                                               ",
"                                                                                                                                ",
"                                                                                                                                ",
"                                                                                                                                ",
"                                                                                                                                ",
"                                                                                                                                ",
"                                                                                                                                ",
"                                                                                                                                ",
"                                                                                                                                ",
"                                                                                                                                ",
"                                                                                                                                ",
"                                                                                                                                ",
"1 1 1 1 1 1 1 1 1 1 1 1 1 1 1 1 1 1 1 1 1 1 1 1 1 1 1 1 1 1 1 1 1 1 1 1 1 1 1 1 1 1 1 1 1 1 1 1 1 1 1 1 1 1 1 1 1 1 1 1 1 1 1 1 "
};
