/* XPM */
static char *_9952_d91d6e5b246cbaadd729f040405d119121b9ee7f8aeb5a3f95a8dbac5543ac04[] = {
/* columns rows colors chars-per-pixel */
"64 64 76 1 ",
"  c #23231E",
". c #2B2D1F",
"X c #2F341F",
"o c #32371F",
"O c #353D1E",
"+ c #262520",
"@ c #292721",
"# c #2C2A22",
"$ c #332D24",
"% c #392F25",
"& c #2F3021",
"* c #323322",
"= c #3C3226",
"- c #363D20",
"; c #393E21",
": c #3C3629",
"> c #3E3929",
", c #433327",
"< c #483427",
"1 c #443A26",
"2 c #483927",
"3 c #453528",
"4 c #4B3729",
"5 c #443D2B",
"6 c #4C3929",
"7 c #523D2C",
"8 c #38401F",
"9 c #3B4122",
"0 c #414525",
"q c #454927",
"w c #46412C",
"e c #4B432D",
"r c #464828",
"t c #4C4D2B",
"y c #54422E",
"u c #524B2D",
"i c #54522E",
"p c #4D4530",
"a c #4F4831",
"s c #524631",
"d c #594630",
"f c #554C33",
"g c #5B4C33",
"h c #575430",
"j c #5C5334",
"k c #5E5A33",
"l c #614E35",
"z c #645236",
"x c #625B35",
"c c #645639",
"v c #685538",
"b c #655A3A",
"n c #6C5C3B",
"m c #725E3D",
"M c #666137",
"N c #676038",
"B c #6C633B",
"V c #73633E",
"C c #73693E",
"Z c #746540",
"A c #796541",
"S c #776B40",
"D c #7C6C43",
"F c #7E7144",
"G c #826E45",
"H c #837346",
"J c #877548",
"K c #897649",
"L c #877849",
"P c #8D7A4B",
"I c #917E4D",
"U c #94814F",
"Y c #978350",
"T c #9A8551",
"R c #9D8853",
"E c #A18B54",
/* pixels */
";;;8;O9O9;OOOiKTRYYYYYYYYDqOotPTRD:+@#*py>0qr>:HRYTTIStO;;9O9O9O",
";88;8;O9;8;112yzHYYYYYYYTZ0;rVTTPf#$##bIIKLLFVzmKYILh9;;;8O9O9O9",
";O;;O988;>144,$#gYYYYYYYTUFCHYYRD#@Bb%DRKKAngd76vGzy1-9O;;8-;O9O",
"89;8;8;>12666sgVKYYYYYYYYTTTETIIK5eKb#5dd76<<44<7g7y6;;98;;899O9",
";9O8;1244444mIYRRYYYYYYYTTYTTRPlvvgu:@@$31<21115=lHIk99O;;;;O898",
"9O8124=34444nPTYYYYYYYYIGGGGGAn6dnnbs#@$:;;;;OOew%bUB9;9;;11>O9O",
"OO126,@%3%,<=:gDTYYYYYTIv6667444vLPUHh:-9O*&&##*$@>q9;>16<$%321;",
">1664$:gnp$,$+ pITYYYYYTKg4444446uahhr;-88*&#**###-9*#3663%@$=31",
"33,$5bKYRZ$##+#bYYYYYYYYTPl<44444<,;;O;O8;8-8O9e$#*::#%3664$@#$=",
"#@@+$jKRPp@@@$bYRRTTRTTYTTHe<6446464<311;1>;1>;>#@@$$##:,,%##@@#",
"$sjf>#:gs$@#+5DDZDGHHIITTTTHu44444466466242643$@#%,%$#@@@#@###@#",
"DYRRn#++##@#$37=$3777gvmJUTPg344644444333,,,%$@#%37vZ>+@%$#@$=#$",
"PRIA5###@@##$=$#@#,4<<<<exmd674446664%#####@@#%<4lGTYp $773#5Ab$",
"KRD4$$@#$=:$##$==##%4664Oo.>ujzs,,3444%$$%%$$,47mITRD$:ZDJG5:PP>",
"PIz,%##,463#@@$3<,$@$<64,#@*99t9*$$*$%%=644467lGYYYRc#ZTTTTHjDTf",
"jl:$@$34=$#@#&-:;;;*##=3%@##O99OO;X@#@#=4644dAIYTYYTDnITYYYTTRRn",
"#@@@#,4$@###=;;O;;9O*@#$###&;99OO9*@###o36627lKTYYYYITRRTTTTIKAd",
"%%=,=44,,<$$<421;8O9O**@####-;889O*@##@#>66<7nITYTKmzvmGPIKAz7<<",
"4446444464=3744,;9O;98;#@#@#-9O98O$@@#$#&1,6AYTYRIl4<<47dd74<444",
"444444446666<6<$$O9O8O*##@#-9-;&&*###*OOoOqnUTTTRG444444<<<44444",
"444444444342=%*@##**&###@&-;9O9O##@#oOOOOkHUTTUKKn44444444744444",
"444<6447776=###@##@@@@#@#-;;O9O99*@#OOOOkYEYKSzdd644446444444444",
"<<<1>>5zSKDt&*--9;*#####-;O8OOoiFSjiqtuhmCVvy64434<4644444444444",
"dzzxir99kFUKtO89;;-#@##-OO80thkCURYUPPIHVml6,3327444446444444<44",
"KUYYUHBt99iFPk9&#&#@#&989tBFPYTTTTUYYTTYTHi9;;;9BHnw=122444337lA",
"TTYTYRTB;&otDb:@@ @@@&-tBPTRRTUJSBMkkJTTHtOO;888tBM09;;;3447zGIR",
"YYTTYYUf@@&###@#%::#@ >LTTTUFNiiNCCBCPRKiO9;;9OO0NFFSBMkkbZHYRRY",
"xxNHYYYDbf*@@#5bFJFh>pbYRUCi99kLUTTRRUFtOOO88;;OkPPIUUUYTTRRRIDN",
"OOO9xPRRPj#@#cPRRRRFFYYYFi9OO9MHYRYLCi9O;9O;O8O8;>>wtthBPTTYDh9;",
"8O-ookPZ5@@@:HEYYYYYYRYN9OOO9O9STHk0;OO9;O9O8O0tuw>>98OOkUTS9Oo;",
"Oo##@*5$@@&@@aHTYYYYTHh;89O9-O0SBrOOOO9OO9O9OtCIUIPLLFBttUUtO999",
"i;###@@ @@--# wPTYYYRPh;9O9O;8999O8;99O99O989SETTTTTTRTUFUC9OhFC",
"PZ*@@@#pe>0rr=:GRUTUIHh89OO99O9OO99O98;9-9-89kKYTYYYYYYTTHtOoiUT",
"Uf#$$$bYYKKHFZzVKTUJi9O;O9;OO9O;O9;8O;;O99;>11dzHYYYYYYTTV0;0CUT",
"D#@nb%GYPLAngd76vHzy1O9O9OO99O9O;9O;;;8->>364<$#jUTYYYYYTUHCJUTT",
"P>wPb#5gy744344<7dyy61;9O99;O9O99O9O;9;;36642sgnLYYYYYYYYYTTTTUP",
"ncfd=#+$33<21115:jHIx;;O;;;;9O9OO988;1324446mIYTYYYYYYYYTTTTTTIl",
"cmbvs#@#;1;;;;-r5=bIB;O;;;111;O99O8>32=34446nITYYYYYYYTIGGGGGSn7",
"VHPYHh*-9O*&#&@$*@>t0-;32,$=321:O9144,@=3%,4=>fDYYYYYYYIv4466664",
"2yhhir9;88*#&&**@#O8*$3663=@#=3411464$>gn5$=$@+sYYYYYYYTKl<44<44",
"43,;=O;O888O9O9e$@*>=#$4464$+@$=<3,%>nPTRZ###@#bYTYYYYYYTPg<6446",
"46641111>>;11;>>##@$$.#%:==$@@@#@@@+$jLTPa####bIRRTTTTTYIEHy<<44",
"44446666464423$@#%,%$@#@#####@@@*pgf>@:gs#@#+5DGZGGGKIITTETHu444",
"644643,<3,,,=#@#$37nZ3+#=$@#$:$$nYRRm#+@###@$47%#,77ydzmKITKg<46",
"44666%$$####@@%,4gDYYp@$673@5Ab$ZRYA5@######%%$@@$,44<<4exNg7666",
"=,<443%#$%%$$,47mIRRD$=ZDGH5:KP:bRA4$$@@$%=$##$=%##%<644;o#>ugzy",
"**$$*$%,444447lHRYYTc#ZYRRRDcDIgbRz3%#$,44,#@@$56=$@$<66,@@*90t0",
"9;*##@@=3444dAITTYTTDbYYYYYRTRRnpj3##$,3=%###$--8>;*@$%<%#@#;OO;",
"OO*@###*12247lKYTTTYITRTTTTTIKmg$+###,4$##@$=;9;89O;&@#$####;-9O",
";9*@@#@#>6427nIYITKmvvmGPPKAl764%%,%%6<,,3$$2231;8O9O&&#@###;9O9",
"9O#@####*1,6ATTYTIl<<446dd7644444464464466%3664,;89O;9;#@##&9-9O",
"**###*9OoO0nYTTTEG64444<<<444444444444444646663$#;O9;;*####-889&",
".@@@*98O8kHYTTYKKm4444444444444444446444<444==*#@&**&##@@#-8-9O-",
"9*@#oOOOhYEYPVld764444644464644464444447776=#@##&#@@@###&-;99O-9",
"FSjttqiiBGVvd64<<446644646444444444<1;1xDKDtX&*-;-&####@-;8OOOot",
"RTTUPPUFmmj6,3<676664444444444447lxzuqO0kDIJtO99;;*#@#*--O89tkkC",
"TTTUUTTTYHh8O;;0BHnw1166444426lZKUUTIJBt;9tHPk;*&###@&;O;tBFPYTT",
"CCMkxHTTJtOO98OOtBb08OOO,347vGUTTTTYTTTC;&-rDb:@@@@#@&;tBPTTRTUL",
"NCCBCPRKuO889OOO0NFHCBMxknZLYRTTYYTTTTUf+#*#*#+#%:*#@ wLRTTUFMii",
"UTTRRUFtOOO8OO0OkPPPUUUTTTTTTIFNxxNHUTUSbf$@@+5bFLHi>pcYRUCh99kL",
"TTULBi0O;O9O99OO9>>rqtiBPTUTFi9OOO99xPRRPj#+#cPRRRRFFUYTSi9OO9xH",
"THxr9OO999O;OO0utw>>988ohURC9OOO89;&okKZw##+:HRYYYYYTTUN9OOO;O9S",
"MrOOOOO9O9O98tDPUPKPLFCitPUto999Oo###*5$@@###pHTYYYYTLi999O988rC",
"OO8O9O9O9O889CRTTTTTTTTUHTC9-kFCi;&@@@@@##;;#@pKRYYYTLiO;O9O9999"
};
