/* XPM */
static char *_388_c6f8ef4f5ea8c26aaf3564ecc2991765488a9810ea16e6910dabc209e8f9bbf1[] = {
/* columns rows colors chars-per-pixel */
"64 64 255 2 ",
"   c #030402",
".  c #0C0B09",
"X  c #120E0B",
"o  c #1A0F0E",
"O  c #10100B",
"+  c #16150B",
"@  c #1A1C0D",
"#  c #191713",
"$  c #1B1B1B",
"%  c #271B17",
"&  c #2A1911",
"*  c #1E210E",
"=  c #1E2112",
"-  c #21240F",
";  c #232412",
":  c #272717",
">  c #2A2E13",
",  c #2D221B",
"<  c #33231B",
"1  c #37291E",
"2  c #2D3214",
"3  c #2E3218",
"4  c #353818",
"5  c #211C20",
"6  c #232323",
"7  c #2A2825",
"8  c #2B2C2D",
"9  c #3A2B24",
"0  c #393528",
"q  c #2E3032",
"w  c #333334",
"e  c #373738",
"r  c #3B3B3B",
"t  c #41351C",
"y  c #422D23",
"u  c #473628",
"i  c #45342B",
"p  c #4C352B",
"a  c #52372D",
"s  c #533A2D",
"d  c #453A37",
"f  c #543B32",
"g  c #5A3D32",
"h  c #384116",
"j  c #3C421A",
"k  c #3D422A",
"l  c #46471E",
"z  c #434B1D",
"x  c #49531D",
"c  c #50591F",
"v  c #58651E",
"b  c #474826",
"n  c #54472C",
"m  c #4C5422",
"M  c #4E5428",
"N  c #535B24",
"B  c #575728",
"V  c #484639",
"C  c #5C4234",
"Z  c #584738",
"A  c #535539",
"S  c #645A2E",
"D  c #624335",
"F  c #654837",
"G  c #664A3A",
"H  c #6B4B3B",
"J  c #714E3D",
"K  c #695639",
"L  c #73513F",
"P  c #76553D",
"I  c #5A6426",
"U  c #5C6627",
"Y  c #5C642B",
"T  c #5D6535",
"R  c #557438",
"E  c #67652B",
"W  c #636C2B",
"Q  c #65722B",
"!  c #6A772B",
"~  c #69742D",
"^  c #717227",
"/  c #686934",
"(  c #746B3C",
")  c #6C7433",
"_  c #6B7535",
"`  c #737C34",
"'  c #76793B",
"]  c #747C3A",
"[  c #3B3D42",
"{  c #3F4144",
"}  c #484747",
"|  c #564A45",
" . c #4E514E",
".. c #59544A",
"X. c #585858",
"o. c #684C43",
"O. c #714F40",
"+. c #685747",
"@. c #755342",
"#. c #795644",
"$. c #7C5946",
"%. c #745948",
"&. c #7C5B4A",
"*. c #685B55",
"=. c #795D54",
"-. c #5C6B4A",
";. c #7A6549",
":. c #7B6A4C",
">. c #6B7644",
",. c #797A45",
"<. c #666950",
"1. c #6A6758",
"2. c #776858",
"3. c #75775C",
"4. c #5E5E61",
"5. c #686766",
"6. c #786B66",
"7. c #767669",
"8. c #6D6E72",
"9. c #787776",
"0. c #815B46",
"q. c #825E4B",
"w. c #805E51",
"e. c #83624D",
"r. c #866A4D",
"t. c #83794B",
"y. c #836253",
"u. c #896552",
"i. c #8B6B55",
"p. c #866859",
"a. c #8B6B5C",
"s. c #916D57",
"d. c #857453",
"f. c #8B7857",
"g. c #96775A",
"h. c #937D5A",
"j. c #896D63",
"k. c #926F61",
"l. c #8E7264",
"z. c #87796B",
"x. c #927364",
"c. c #93756A",
"v. c #957A6C",
"b. c #997A68",
"n. c #847A75",
"m. c #947C75",
"M. c #9B7E72",
"N. c #A07E71",
"B. c #6E842E",
"V. c #75813B",
"C. c #798639",
"Z. c #7A833D",
"A. c #7C8644",
"S. c #748757",
"D. c #778B6C",
"F. c #649563",
"G. c #9E9C3A",
"H. c #848647",
"J. c #828C4C",
"K. c #948C4D",
"L. c #87924B",
"P. c #898955",
"I. c #9B845D",
"U. c #978858",
"Y. c #8A9555",
"T. c #8A9757",
"R. c #8C945B",
"E. c #96945B",
"W. c #929B5C",
"Q. c #A18F5E",
"!. c #8BB057",
"~. c #888869",
"^. c #978765",
"/. c #8D9567",
"(. c #939C63",
"). c #979968",
"_. c #898677",
"`. c #9D8275",
"'. c #9A8877",
"]. c #8D9279",
"[. c #989875",
"{. c #A38C63",
"}. c #A48868",
"|. c #A99768",
" X c #AC956B",
".X c #B29A6D",
"XX c #B39A6E",
"oX c #A48776",
"OX c #A38A7D",
"+X c #A89879",
"@X c #B39B73",
"#X c #B39778",
"$X c #96A165",
"%X c #99A268",
"&X c #9AA36C",
"*X c #8AB468",
"=X c #9DA572",
"-X c #9EA875",
";X c #A5A36A",
":X c #B9A66D",
">X c #A8A777",
",X c #A1AA75",
"<X c #A4AC7B",
"1X c #BBA374",
"2X c #B9A479",
"3X c #A8B17D",
"4X c #C3A97C",
"5X c #C1B07E",
"6X c #807F80",
"7X c #7F8085",
"8X c #8A8887",
"9X c #958B88",
"0X c #8E908C",
"qX c #98968B",
"wX c #999796",
"eX c #A58D82",
"rX c #A98F83",
"tX c #A99485",
"yX c #AB948A",
"uX c #AD9A8D",
"iX c #B2998A",
"pX c #A89B96",
"aX c #B39D93",
"sX c #96A682",
"dX c #AAA785",
"fX c #B9A786",
"gX c #ABB383",
"hX c #ADB589",
"jX c #B5B689",
"kX c #ABA295",
"lX c #B8A698",
"zX c #B7B694",
"xX c #BBABA5",
"cX c #B1ACAC",
"vX c #C4AD83",
"bX c #C5AF89",
"nX c #C7B288",
"mX c #CBB58C",
"MX c #C9B290",
"NX c #C8B897",
"BX c #CCBC9B",
"VX c #D2BC93",
"CX c #D1BD9B",
"ZX c #C8B9A6",
"AX c #C8B6A8",
"SX c #9DCA9F",
"DX c #D4C19C",
"FX c #D5C3A3",
"GX c #D7C6A7",
"HX c #DACAAB",
"JX c #D5C7B3",
"KX c #E1D3B6",
"LX c #D3D0CC",
"PX c #DDD7D5",
"IX c #E4DAD8",
/* pixels */
"oXoXN.N.iXfX_.fX#X}.k.x.#XBXBXZXDXNX9.X.X.4.J.<.X.<.3.fXVX>XZ.] V./ } V o.G G p n +.i 1 < , % 5 5 6 6 < 9 p g o.q.@X@XXX;.0 : O ",
"x.b.b.b.}.MX^.1.=.k.a.b.bXfXBXFXBXDXzX^.8.X.,.L.,. .} -.>XC.Q / T k e +.G p i p y 9 i 1 % % 7 6 6 $ $ 7 d %.w.k.v.fXDXCXMX^.K , ",
"s.s.g.s.#XnX#X=. ...*.z.9.5.7._.+XDXDXnX^. .>.Z.A._ } V  .T Y N e 8 0 *.Z u 9 9 < , % , 9 9 % < 5 q { X.8.0XlXrXiXlXhX>X3X>XT._ ",
"u.u.a.s.b.#Xk.%.w.2.X.4.5.5.X.n._.3.1.X. . .<.P._ _ V r k k k z q 7 4 M Z i % % % % % % < b n p O.n.8XwXwXpXlXaXiXfXgXgX;X;X&X>X",
"0.w.w.y.w.y.q.&.&.i.{.'.7.1.7.7._.z.^.'.^.^.^.x.d.Y k w q 8 j 0 7 6 6 = 3 0 1 : % % % < 9 g g.2XaXaXuXaXwX8X8Xn.OXdX;X>X,X<X).).",
"o.o.O.O.@.&.%.%.@.,.J.P..XfXfXfXvXvX X X2X}.U.,.Y I q 8 7 7 h 3 6 $ $ $ $ 9 9 0 : % % y G b.yXAXNXjXdXOXeXm.5.8._.=XW.W.&XE.E.Y.",
"a D D o.o.G o.G / ' H.H.Q..X|.^.|.{.U.t._ ) ) Y N k 8 8 $ 2 2 2 - # # # + # 1 0 u u f #.N.lXlXaXrXOXdX&X[.[._._.6X9./.$XE.L.|.;X",
"y y a f n D D S ) ) ` A.L.' ' Z.A.V.Q Q / I Y I M 6 8 $ $ $ # # # # @ * ; > 0 0 Z h.vXNXAXaXuXaXlXAXaXOX[.~.7.6.5.9.5.6.3.P.mXmX",
"< 9 1 u s g n Y ) ` ) ` ` ) ' ' ] Z.) ~ Y Y I N b 6 7 $ $ $ # # * * * = 2 b K E |.VXHXKXHXhXzXxXxXzX+Xx.a.x./.3.X.*.4.5.1.3.H.Q.",
"< < 4 l s f n U ) H.( ' ' t.' ` ' H.) / W B m z 7 : 4 3 ; # + * * * > 3 z f.U.;XGXDXBXBX).(.R.P.Y.&X(.).).b.s.e.| } } } -.` K.XX",
"& % 3 1 p i M E ' {.XX X1XvX|.` ] Z.A.) ) N m 0 3 2 2 > ; * * @ - 2 h x t.|.Z.I.f.f.I.f.T T / _ m 2 2 l M b 1 6 0 s e e w w Z | ",
"& ; > 9 p 0 E ) H.K.XX4XvXvXMX|.A.' ' ) Y Y m 4 4 2 > * * * ; > j m U Q I.) ,.iXNXCXZXzXdXlXzXzX-XA.m - X @ $ $ 6 q w 9 V :.+.Z ",
"o : , 1 i M _ C.] V.H.K.|.>X>X).Y.A.] W U c h h 2 > * * * ; 4 x N I N ' A.).GXCXaXyXrXM.N.OXM.rXtXqXD.*.e 6 $ $ 6 > 1 p D e.Q.h.",
"& , & 1 8 :.E.U.E.Y.J.P.Y.J.H.H.Y.S.` W U k 4 > * * @ * - > 4 b j j T Y.$X2XVX Xv.OXyXrXyXeXN.M.l.5.5.8.~.A._ N M B S n a u n G ",
"% % o 7 q :.K.|.1X1X;X(.(.(.).R.R._ _ U m 4 2 * @ O O * 2 t l l M ;.,.( d.#X#XM.p.=.%.&.o.%.a.x.5.X.} *.g.U.R.Q. XI.I.f.f.;.G a ",
"o # X % r P.Y.Y.R.R.R.(./.(.[.).R.A.Q c j ; * O O @ * 3 l l l l M B E g.}.s.H D y < & o & % < < { X.} @.y.q.u.2.^.XX.X.XI.U.f.:.",
"X X O 9 } R.(.R.)./.=XdX&X=X).J.,.~ M z - + @ + @ * > l x z c c N S K &.K G +.d 5 5 w [ % # + $ & , 0 D L %.P @...| 2. X|.{.h.r.",
"X O X 9  .R.(.).).-XgX-X=X[./.J.>.V u : @ @ + + @ 2 4 z l l g g g p 9 9 | 9.8.7 7 0 n.8X8 6 O $ f 0 < < G O.D H &.o.r V h.{.U.d.",
"X . O r X.7._.).[.dXdXuX[.].P.:.| g 8 $ & @ + + ; 4 t n s s s p y i ..8XcXLX4.-.T.K.S % u E k O 4.8.| 9 i K O.o.s P @.e | |.I.f.",
". O $  .5.8.9.6X0X0X0X8X8Xm.j.X.Z u 9 , % o # ; y a g g a y y a o.6.wXLXLXLXA F.!.^     < B.-.3 X.cX6.X.d 9 f O.s s D D w Z Q.e.",
"O O b A.(.[.).qXwXkX-X'.9.8.5.} g a y 9 1 1 y p D a y u f d o.=.n.pXLXLXPXLXX.D.*X^ : . h B.>.T  .cXpX7X} 9 & f K C a C s 6 Z G ",
"* * S P.'.[.[.+XuXuXuX_.5.X. .V F g g D g F @.$.y.a.f.F f j.m.m.yXAXLXPXLXPXD._.SX!.G.H.B.!.F.N 5.cXpX9Xo.i % 5 s n p s g i 6 s ",
"c l / U.&X%X[.dX<X<XtXM.6. .} d r g F &.&.a.l.j.OXGXfXp.a.#X#X=.m.xXLXIXPXPXcX<.sXD.!.G.B.F.>.e 9XcXcXpXj.o.9 < 9 y a s g g w r ",
"H.Q A.R.~.'.eXuXpXyX'.c.j.+.} e r V @.p.l.c.`.fXmXOXOXMXmX#Xp.y.=.c.aXJXPXIXPX0X3.F.F._ S.R k n.xXAXxXk.o.o.g p a ;.H a s d r V ",
"' W J.@XiXfXlXaXuXeXm.l.p.y.@.d [ } q.a.c.OXMXHXiX^.vX4Xs.H $.%.w.N.fXBXCXJXAXAX9X7.P.D.D.3.8XxXyXv.a.$.D C s u a r.{.@.H Z } X.",
") ~ |.OXCXDXHXNX=X).h.t.;.$.@.J d  .=.a.v.eXlXHXBXVX@Xi.#.O.@.u.}.#X.XfXMXfX=X-X,XqXpXwX9XqXeXc.a.a.#.$.F D K f D r.4Xg.u.y.*.8.",
"v H.+Xv.fXFXGXNX-X(.A.A.^ P K H O.o.y.v.`.OXyXlXZXVXb.p.e.#.%.f.g.1X X@X{._ >.A.A.T.3.4.8.2.u.O.O.q.J @.J F 0.P H r.E.g.c.N._.7X",
"W |.mXoXOXGXGXBX=XY.A.] ! E P S $.$.j.v.`.uXuXaXxXaXc.b.z.*.<.d.h.XXXX1XA._ _ W / Y v t.{ 8 D D H q.q.0.g.g.I.( J Z.H.b.eXyXrXqX",
"' :X2X>XOXGXFXFXjXP.V.Q ! B.E E :.p.d.~.OXuXyXpXkXaXeXj.5._.bXmX.X^.K.] ` C.A.( A.A.,.XXE.b } $.G &.#.#.g..X X|.V.C.L.}.rXaXyXtX",
"` H.T.%XfXBXFXBXCX;XV.` Z._ ! ~ ,.f.a.^.).'.oXOX0XpXwX5.6.M.oXoX4X|.E I Q _ ;.W W ! H. .Y K.z.| J J J O.$.{.@X4X|.J.W.,XiXiXyX~.",
"` J.).(.jXCXCXVXVXvXK.` K.' Q ) ] A.P.x.^.R./.OXuXpXpX9Xz.c.m.c.v.Y.L.V.E H E W Q Q U Q V ..2.w C H O.@.#.{.5X5XmX5X;X-XtXyXtX=X",
"` L.Y.2XCXZXlX8Xz.5.:.U ) |.Z.! ] A.A.P.^.^.).).fXNXMXaXyXoXoXiX&XL.).~.p.H._ / W U U U m 8 w e d F @.q.e.s.4XmXmXDX3X&X3XiX+X,X",
"] f.).BXHXHXGXBX_.4. .r V Q.1XK.V.A.A.J.T.R.~.(.-X<XjXDXDXFXVXDX&XW.`.M.OX[.v.`.T.J.Z.C.A  . . .} +.y.g.#X}.bXFXFX2XmX3X,X,X3X=X",
"A.M.N.aXMXAXfX#X}.v.*.[ e } <.j.1XJ.A.L.L.T.W.(.$X%X<XhXhXgXjX%XT.U.v.M.oXOXrX>X3X<X=X%XS.5.4.X.4.p.a.b.fXfXGXHXGXNX3XDX,X%X,X&X",
"A./.OXrXyXrXM.c.j.k.q.@.V e e e }.;XJ.R.Y.T.Y.(.$X-X<XgXhX3X3X*XT.J.P.v.M.oXrXdX3X3X-X<X[.8.8.5.8.9.m.9XtXeXZXHXFXHX<X3XDX3X&X(.",
"L.U.eXyXyXyXeXv.c.u.#.P @.| f e } 3.A.L.L.J.Y.T.$X$X%X3X<XhX,X,X(.L.L.P.a.x.^.(.-X-X%X].8X9.8XBXNXuX9X9XwXqXpXlXkXNXFXjX,XNXvX>X",
"L.).OXOXM.OXM.c.k.u.u.| | | { { } }  .>.-.A.L.W.$X-X$XgXhXhXhX3X<X(.L.L.P.a.Y.Y.W.W.~.9.).9.fXGXHXGXaXaXCXHXJXGXCXzXGXHX2X;X,XjX",
"/.).`.eXN.v.c.c.x.u.+.{ { [ { } [ } X. .}  .<.(.%X$X&X<XhXhXjXhXgX,X$XT.J.t.A.J.Y.J.S.%XR.7.0XZXKXZXaXrXZXHXGXGXHXHXFXFXDXmX2X;X",
"(.(.eXrXoXj.k.j.=.*.+.X.{ } | ..+.*.X.} -.-.4.7.3.S./.gXgXhXhXzXjXhXhX,X).H.C.L.L.A.R.W.3.7X0XJXKXZXaXyXMXZXCXCXFXHXHXCXfXnXVXVX",
"R.=X+XeXeXc.k.v.*.O.u.%.o.0.#.q.q.q.&. . .C.C./.~./.D.[.3XzXhXzXzXzXzXlXaX+X$X%X$X$X].0X0X0XaXZXZXlXlXaXaXaXaXAXaXbXVXDX+X'.@XvX",
"(.-X;X[.eXc.k.x.i.q.y.+.0.$.#.0.0.$.u.w. .z.;XE.W.$X$X&X,XgXjXgXzXlXxXxXaXtX<X,X,X/.9.0X0XwXlXaXaXaXaXxXaXyXaXaXOXc.v.oXVXCX'.7.",
"9./.<X<X'.x.x.x.q.0.&.q.$.#.#.#.$.q.0.q.o.1.nXmXMXjXjXjX3XhXzXiXzXzXaXlXlXdXhXjX-X7.7XD.0XzXhXaXlXAXxXxXlXyXeXuXM.p.c.a.b.4X4X X",
"8.6X8X].h.c.x.c.w.q.q.u.0.$.0.&.#.#.#.u.s.=.[.VXmXVXGXNX,XzX,XtXzXzXaXdXdXtXhX].8X].sX,X<XhX,XhXxXAXAXpXeXOX`.M.a.l.p.i.e.e.0.s.",
"n.0X6X9.9.2.p.u.w.0.0.0.0.&.#.#.#.#.P 0.u.q.2.vXnXnXCXjX,X3X&XfXzXjXaXaXdXdX].qXaXgX,X<X,X&X<X3XuXyXaXrXv.v.c.c.l.k.$.&.q.0.$.P ",
").lXyXx.8X5.r V %.0.&.#.#.$.@.#.L J L P P q.$.+XmXnXDXnXgX3X,XgXgX3XkXyX3X[.0XhX+XuX-X-X&X=X&X&XeXM.eXv.l.c.c.x.&.a.q.q.q.#.0.$.",
"2XGXCXfXoXy.2.1.} @.0.@.#.$.L L J J J H J @.#.b.fXnXVXjX&XgX%X%X3X3X<XuXdX-XqXhXzX'.'.,X&X(.-X'.c.OXv.c.l.l.a.2.O.0.#.#.P #.0.#.",
"CXHXGXFXbXg.q.}.{...| 0.#.L J J H H J H G o.L r.2XbXmXNX$X,X(.&X<X<X3XgXdXgXqXgXgXdXuXtX>X/.[.'.v.j.c.l.a.a.w.&.#.$.J J F H J J ",
"HXKXGXCXmX4Xs.J g.XX2.o.@.L J H H J J H G o.G e.2X2XnXDX;XL.W.-X-X3X-X,X>X<X-XhX3XhXdX`.yXyXrXeXc.j.l.w.y.y.q.#.H #.#.#.G d F J ",
"xXKXGXMXnXVX4Xi.P s.4X$.J J H H O.#.q.#.D C C %.@X2XmXBXnXY.L.W.%X-XgX%X=X<XgX-XgXgXgXdXeX'.eX'.p.j.y.=.w.@.@.D H J J H F H p f ",
"9.JXFXvX5X4X4XXX0.0.i.g.P L J L O.q.q.#.o.C s %.}. X2XvXMX;XT.W.(.%X=X&X&X-X,X,X%X=X).(.=XeX'.v.j.c.x.p.w.#.O.D J @.P H H F f q ",
"4.9XnXvX5X4X4X4Xg.P 0.#.#.#.#.P #.0.0.g.@.a s :.~.|.|.@X1XnX;X$X%X%X&X(.&X<X-X<XhX%X).&X=X^.`.m.`.y.&.p.#.q.#.F J J J H L $.;.q ",
").5.~.:X|..X.X@X4X0.P P L J @.J #.q.&.g. Xr.;.;.h.XX X2XvXmXmX>XW.$X(.%X$X<X$XW.).-X,X(./.[.OX:.f.y.a.p.$.0.H H H $.$.r.I.I.^.:.",
"-._ ..V.V.V.B.] H.;.H O.J Z G O.#.w.$.0.{.|.:.+.d.{.{.@X@X@X2XmXVX~.S.;XW.(.,X&X&X=XR.L.P.W.P.P.p.v.k.p.s.i.{. X{.XX X{.{.Q.h.{.",
"/ / ` T B._ _ ! Q E G H E C { f G H J @.r.|.d.;.d.I.^.{.XX4XvX+X1.'.^.+XE.(.W.%X$X%X&X(.P.v.&.p.j.v.}.4X1X.X1X.X XXX{.{.{.I.I.I.",
"` Q Q ! Q U Q U U U S C N D D f d r d | B ` _ :.d.d.^.^.@X@X3.2...2X@Xi.XX3X&X(.L.W.$X~.c.p.=.a.}.1X4X4X1X X|.{. X{.Q.{.I.f.f.h.",
"Q _ Q Q Y I U Y N v b a m f f D F H } [ r b c N S :.^.^.f.X.w +.q.@.u.i.}.}.h.,.Y.K.d.x.&.e.}.|.fXvX@X.X X|.{. X XQ.^.^.I.h.f.f.",
"W ~ ~ U I c m m z j 4 y j p a s g F H M e q k x x A ..d e ;.;.o.d O.g.g.e.&.w.w.}.l.} %.( Y.E.:XQ..X1XXX{.{. XXX{.I.Q.{.I.g.d.r.",
"N I I I m x b l h 4 4 3 , 9 y p g g C I N b 8 j m 8 q 8 w ^.+.w +.b.r.#.#.y.i.#X#X*.| +.T ` ! U.K.` XXXXI.I.{. X{.{.I.I.g.t.;.:.",
"M N x z z z 4 2 2 : - * @ & , < y s s c m 7 7 7 k w w q 8 k q V i.$.H #.$.s.4X X0.@.g.nX1.V _ ` H.Q Q K.g.f.I.Q.{.{.I.;.F Z C C ",
"j x z j 4 4 2 > - @ + O . . + o % y l x m 0 6 7 e e w q 8 q K ^.P F @.G r.@Xg.O.0.q.@XvXfX..r >.^ Q ! v ^ f.I.i.r.f.d.r.K f s n ",
"j j 2 : > 2 ; - @ O .         . @ % 4 j j h 4 z V [ r q q x ( ;.H ;.H $..X{.F J P E.4X:X1X X..e U ! E S F H D g a g C C s g s s ",
": $ $ # ; ; - @ .             . + * > 2 2 2 2 z / { { w b x N :.h.h.D I.I.L J H / ) Q.4X.X|.|...w n D J P B S K K G D f s s a p ",
"# # = - - @ + . . .           . + * * - * > : m B.>. .k M m M ,.^.g.e.;.O.F F H F S Q K. X XI.P w 0 B S t.I N :.e.o.F s s a i 9 ",
". + + + o o o X X . . . . . . O @ * * * * - * M T _ T [ M N m S ;.G D D D F F H #.L n B K.}.F #.e.w B S L D D f s s a p u y u i "
};
