/* XPM */
static char *_9842_f07937489f00b4c132e21c4c218ad400614ff024fe0da0505e3358871ec50694[] = {
/* columns rows colors chars-per-pixel */
"64 64 256 2 ",
"   c #000305",
".  c #00040C",
"X  c #010A0C",
"o  c #090B06",
"O  c #000413",
"+  c #000A13",
"@  c #00051B",
"#  c #010C1B",
"$  c #0A0E14",
"%  c #01131C",
"&  c #06151A",
"*  c #191C1E",
"=  c #000523",
"-  c #000B23",
";  c #000C2B",
":  c #00072A",
">  c #011324",
",  c #001B26",
"<  c #00132B",
"1  c #011B2C",
"2  c #0B1B27",
"3  c #141B28",
"4  c #000C34",
"5  c #000F38",
"6  c #001433",
"7  c #011C33",
"8  c #00153B",
"9  c #011C3B",
"0  c #0A1D35",
"q  c #111E37",
"w  c #04232D",
"e  c #0B252C",
"r  c #172529",
"t  c #022335",
"y  c #02233C",
"u  c #032B3C",
"i  c #0B2B3D",
"p  c #0A2637",
"a  c #132A34",
"s  c #162939",
"d  c #18333B",
"f  c #04313F",
"g  c #283239",
"h  c #001C43",
"j  c #001848",
"k  c #001047",
"l  c #022443",
"z  c #012C44",
"x  c #0B2C43",
"c  c #01244C",
"v  c #012C4C",
"b  c #0B2948",
"n  c #132C43",
"m  c #172B45",
"M  c #023244",
"N  c #0B3345",
"B  c #02334B",
"V  c #0B334B",
"C  c #02394C",
"Z  c #0B384D",
"A  c #133244",
"S  c #13324B",
"D  c #18374A",
"F  c #012D53",
"G  c #012C5A",
"H  c #042853",
"J  c #023353",
"K  c #0C3553",
"L  c #023954",
"P  c #02345B",
"I  c #0B355A",
"U  c #023B5C",
"Y  c #0B3B5C",
"T  c #0B3B54",
"R  c #133553",
"E  c #143B5C",
"W  c #173956",
"Q  c #122E53",
"!  c #263848",
"~  c #253C55",
"^  c #2D3644",
"/  c #012C66",
"(  c #013562",
")  c #033C64",
"_  c #0C3B64",
"`  c #00346B",
"'  c #023C6B",
"]  c #0B3B6A",
"[  c #153C66",
"{  c #043C77",
"}  c #263C68",
"|  c #1B4258",
" . c #0B405A",
".. c #284559",
"X. c #38515C",
"o. c #344754",
"O. c #03426D",
"+. c #0D446C",
"@. c #084666",
"#. c #13436B",
"$. c #1A446B",
"%. c #184666",
"&. c #034473",
"*. c #0B4373",
"=. c #0D4A74",
"-. c #03447B",
";. c #0B447D",
":. c #0C4B7D",
">. c #034A7A",
",. c #124573",
"<. c #1B4B74",
"1. c #12457A",
"2. c #144C7C",
"3. c #194A78",
"4. c #195278",
"5. c #1E5069",
"6. c #264967",
"7. c #334C64",
"8. c #365569",
"9. c #264C76",
"0. c #275579",
"q. c #365877",
"w. c #2D4F72",
"e. c #34627C",
"r. c #495658",
"t. c #465968",
"y. c #485E7A",
"u. c #47667A",
"i. c #556878",
"p. c #4D666C",
"a. c #033D86",
"s. c #0D4C84",
"d. c #044C8B",
"f. c #0B4C8B",
"g. c #054785",
"h. c #134C83",
"j. c #134E8B",
"k. c #184B84",
"l. c #0C528C",
"z. c #085287",
"x. c #135284",
"c. c #1B5383",
"v. c #14528A",
"b. c #1B548B",
"n. c #1A598B",
"m. c #074D94",
"M. c #0D5393",
"N. c #085397",
"B. c #125293",
"V. c #185897",
"C. c #164F94",
"Z. c #245686",
"A. c #225B95",
"S. c #325983",
"D. c #2A648A",
"F. c #266597",
"G. c #356895",
"H. c #3B7299",
"J. c #37688B",
"K. c #145CA4",
"L. c #2A69A5",
"P. c #3A74A7",
"I. c #3A79B6",
"U. c #2F70AC",
"Y. c #1B629D",
"T. c #496A86",
"R. c #59768A",
"E. c #477599",
"W. c #577997",
"Q. c #4E6E8D",
"!. c #657987",
"~. c #667C99",
"^. c #4779A8",
"/. c #4C7CB4",
"(. c #357BC3",
"). c #3D81BB",
"_. c #5D839C",
"`. c #66859A",
"'. c #74889A",
"]. c #70888F",
"[. c #5785A7",
"{. c #4A85B8",
"}. c #588AB7",
"|. c #5089AE",
" X c #6A89A6",
".X c #748CA5",
"XX c #7896A8",
"oX c #658BB4",
"OX c #6795BA",
"+X c #789AB8",
"@X c #6994AC",
"#X c #7BA3BA",
"$X c #3B81C6",
"%X c #5C94C5",
"&X c #5392CA",
"*X c #6898C8",
"=X c #769BC3",
"-X c #649ED8",
";X c #739DD7",
":X c #78A4C8",
">X c #69A5D7",
",X c #77A9D5",
"<X c #72AAD3",
"1X c #7BB4E5",
"2X c #70AAE5",
"3X c #5DA0CA",
"4X c #7FC4FF",
"5X c #8599A8",
"6X c #899DB5",
"7X c #88A4BA",
"8X c #94A9B6",
"9X c #9BA8AF",
"0X c #86A9C9",
"qX c #99B4C7",
"wX c #83ADD6",
"eX c #88B6DA",
"rX c #98B7D6",
"tX c #8CB0C3",
"yX c #A4B7C7",
"uX c #A2BBD5",
"iX c #87BAE6",
"pX c #95BCE6",
"aX c #84BCF5",
"sX c #9DC3DA",
"dX c #A7C4D8",
"fX c #B4CADA",
"gX c #A8C2CC",
"hX c #99C4E9",
"jX c #89C7F7",
"kX c #98C9F7",
"lX c #99D4FE",
"zX c #8DC5E6",
"xX c #A6C7E6",
"cX c #B7D6E9",
"vX c #A5CDF3",
"bX c #A7D8FC",
"nX c #B3DCFD",
"mX c #BBDDFD",
"MX c #B6D8F4",
"NX c #B3CEE8",
"BX c #ABE5FF",
"VX c #B4E3FF",
"CX c #BCE4FF",
"ZX c #BCEAFE",
"AX c #C2DDF5",
"SX c #C8DBEA",
"DX c #C3E3FC",
"FX c #C4EAFF",
"GX c #CBEBFE",
"HX c #C8E4F9",
"JX c #D3EBFA",
"KX c #C8F3FF",
"LX c #D5F4FD",
"PX c #C9E3EA",
"IX c #E4F8FF",
"UX c #C5D6DE",
/* pixels */
"t.| 5.[.OXOX{.U.$X4X).4.<.V D o.! - v J ) h.N.m.M.k.7 % N ~ = = G ] L Z +.h < u C f N e X   a s n E #.=.*.c.v 6.~ @ w.pXbXaX6.8.",
"!.cXvXH.<.$.c.x.-.I.1XG.9 = @ > > < B B ( ' -.f.s.+.y @ 1 n @ 0 ] '  .L <.c l N C Z f d $   O # = 8 P ( G c 4 1 - - S.%XI.-.9.E ",
"rX@Xe.J v R K Y <.9.K : ; : < = > A R v J L O.&._ J W 1 + O u 5.*.` U  .{ ] I x % % , 2   $ r > 8 G ( ) $.; O     n } { g.z.2.0.",
"*X^.2.<.y < 9 ; 9 6 = : p } 6.R - y E %.+.@.P J B M y p X X & u 0.H.4.%.[ 3._ b t > > #     p R $.=.2.=.[ 6 . O O D eX1X{.n.^.BX",
"s.v.b.$.t 1 @ 7 y b q q 6 ~ 6.h O p w.#.U L B B C i u.R.i.o.d R.cXGXPXsXS.[ 3.G T B K 6 . O y _ ,.c.l.{.E.x - D 9 = R Q.:XpXkX-X",
"{.I.1.8 > , i x Z W o.# O ; : 8 @ D w.K ,.O.B  .w _.cXJXGXHXJXIXPXqXqXgX0Xc _ ) v J P z e 8.+XiXiXjXlXlXkX[.h 2.c.[ ; : 4 _ 2.=.",
"2.P F v V N V B z N 2 X + O m y = 8.fXmX<X,.z 1 % @ t 8.qXSX].t.5XXXw f u B T z C M B e.+X6XR.W.}.&X(.K.d.Y.N.d.M.M.v.s.{ g.l.M.",
"<.U J L B M J L U v O . + s D 9 9 6XHXxXrXS.W ..].p.0 1 yXo.a ^ 7XKXi., N u B C C J U T N + @ 0 ,.:.m.m.z.N.d.N.m.m.-.v.V.M.-.O.",
"U J L J M B J &.z.:.K ; 1 ! 7XtX#X`.8.A s 0 t.5XyXUXyX3 r $ '.uXHXJX5Xo.u.v U ) :.>.Z.w.D - m } =X] C.` 8 [ 3.b.k.] : [ j.j._ = ",
"J L B L z U &.z.d.F.H.w.6.q.BXKXLX`.N D s O + +   g ^ 3   $ < : u.NX^ yX`.9 Y F >.c.K y @ - ; 0 =X}.{ [ 9 - 8 _ k : = D S._ - # ",
"_.5.v U #.] v.I.-XaXpXuXCXMXzX@X'.i.8XyX!.X.^ + .   O O O O ! a D 6X^ SX..u # 1 6 p O O # . O 0 $.pXhX XqXuXq.4 @ O @ 3 @ O O + ",
"fXD B 0.[ 8 3.2.1.G b ..u.u. . .w X @ 1 1 A X.& O 2 8X9X5XX.X e p.'.$ ~ d i w % 2 - & & > . % t wXnXAXAXFXxX6.b 0 s 3 O g g t.^ ",
"i.O ..A @ 1 S V 6.Q.uXUX5X'.NXfXr   & a B B t @ O s  X0X7X Xp.% d r.  . & d d n D q # > + > N [.FXDXmXMXZX:X8 8 h = - 2 ! ! XXuX",
"$ # % - . X ! u.7.'.'.t.s R.LXfX+ & X , R T | y : h z y %.y S w % + ^     e i V b 6 - x x E H.VXvX0XmXAXvXE.c.] 0.E = - O 8X7X X",
". 2 x y t u N i 7 > % ! ..tXHXR.@ n i > + 1 [ H F ) %.T B B H ( v H Q - X + f C K ; c %.S.oXnXvXG.=.<XKXDX=X:.l.d.b.b O + yXLXmX",
"s # b y D A , w A D d % D u.6.9 y S z T p - [ ;.c.G.J.J.D.J.G.<.|.9.} 6.M t B B v _ #.Z.zXZXnXG.g.s.G.,X=XOXx.l.m.-.b ; O t NXDX",
"fX~ q.u.p r X   3 & O , i z v J N N M B B c ,.^.lXBXMXVXnXCXcXdXGXwXS.#.4.+.J U U =.x.z.>.jXFXpX-X2X1X>XiXP.v.f.N.` j c oXpXMXNX",
"dXdX+XT.> . X     $ s S N K @.@.L v L L J [ ( <.E.iXVXnXnXvXCXDXAXZXbX>Xc.,.+.J F P z.d.U.lX|.%XA.n.D.E.{.b.:.v.f.f.v.:.F.H.S.c ",
"g 3 - 9 z B w + O s S K <.=.:.x.n.` ) 4.z S W.>XjXzX}.A.V.L.U.*X,XkXZXZXeX5.y z 0.}.&XU.&XlX/.[ f.s.+.%.<.] ) ] ' { l.M.z.:.[ < ",
"2 O S W K Z N , O - - 6 v ( ) P ] H F K # W kX1X{.s.1.s.N.m.g.z.s.}.wXhXCXNX0X0XOX{.V.A.{ Z.pX,XZ.F : 7 K 4 9 P J P z.g.l.l.$.> ",
"Y K K 7 7 w a + . $ # = 9 P ( P , O O @ ; [ 1.a.d.f.s.b.d.M.l.l.g.L.h.,.iXhXiX/.` s.b.:.b.k.9.w.l = @ @ O < Y F J v @.&.z.&.U z ",
"*.+.v 7 % + + X . r n V #.,.+.w.2 . . O 9 oX^.L.j.g.-X(.g.N.I.L.>X-X;.h.^.2XA.{ v.;.G G H F c = = < m D % # K _ J %.L B P U B M ",
"3.+.L C i s 2   X > _ g.j.{ Z.0.9 ; 8 6 : y.=XxXiXiXBX1Xm.K.I.kXnXhX|.{.K.K.A.j.Z.j c q - y 4 6 < m w.w.s - G v.;.+.B Z L M u | ",
"P +.L B V n p O , | ^./.-X-XjXbXoXj ] Z.c = 4 k G.}.2.L.m.d.g.*XhXZXZX-X&XK.U.c.v 9 6 6 i ..6.W O @ v 8 @ + +.O.P P J M M N `.PX",
"U J L C v z 7..XtX7XeXeXaXaX&XL.U.j.{ m.B.x.` F G { k.V.>XjXkXaXP.I.&XY.U.Y.[ c 7 y J T B u W p # $ = p 3 . Q.:XOX0.%.B p 1 o.].",
"F J J v J J I w.| > 1 | 3.{ m.B.s.M.N.N.d.d.v.l.j.j.1.A.>XiX*X] j.m.g.l.M.' F V u N U v L v 7 # + # p S   $ qXLXKXwXI l 7 e +   ",
"e.B U O.-.-.4.%.> - E E.Z.c.{ / v.l.f.v.0.c ,.j.C.h.j <.P $.E.q.2.v.l.z.) @.M N N C B J ' k.] 9 @ 1 W !.i.!.7X`.8.q.D Q.qXFXPX!.",
"Z M L O.c.4.[ 9 > 0 < 0X|.G 3.k 4 P ,.[ 6 = 8 0.k.( : R B 9 : 8 G ` l.z.U B M f M M B @.g.{ k.} l b T.GXJXJX~ 7 i % O 0 W ~ ~.R.",
"f t t x D > O . . O 1 W +X<XG.E.W.D : = = O n A ; @ @ ~ 1 = j 3.;.{ { j.F.@. .M B U >.z.&X}.1XzXhXvXvXnXdXgXXX6X5Xp.* o   # @ . ",
"u , > @ @ O * $ O O > 8.sXCXnXmXGX8Xm q 2 # X # 0 2 3 @ # m E [ 1.k.Z.pXBXzXJ B 9.) ) x.G.^.J.q.W.`.T.w.S p > X.p.r.r.r.  . r i.",
"d N u x D > O # @ ; 6.hXZXMXMXHXuX< : 6 - 2 3 ! ! Q.UX7.p > = ; K 9.wXHXHXt.; 8.W 8 h $.c z | R.5X'.`.XXR.# . O : < 7 2 + O t.NX",
"w f Z R 7 - < < b E 0XCXbXDXcXAXqX$.c #.V @ @ > y..X~..X`.7.R.fXMXnXAXAXuX# - 0 - = 6 D T.R.gXPXXXX.8XLXqXO   & D ..W S - @ y V ",
"+ e x N - < K $.0.=XGXwXZ.>XFXCX%Xl.B.l.0.z + . 8XLXNXqXXXW.0.;XDXMXMXGXX.. r w 1 7 < E ..7 p p D 6.8XIXQ.@ r & X > R 6.9 j *.' ",
"> t S N l I 3.}.kXGX*X[ { Z.bXhXjXU.m.d.x.E 7 O 1 uXSXAXKXGXbXkXMXmXmXDXt.X e i u Z x 1 p i m s y 8.5X!.< 7 W a i > 4 ( ( ] k.x.",
"] F z B O.b.C.P.iXKX,X^.%X;XoXOX&Xd.a.C.{ k 8 6.u.uXJXMXrXwX*XpXAXAXDXmXJX!., d d a d + 2 a e , > z p 1 N V B v D l F Z.P.iXhXrX",
"v.=.C B ' f.f.&.,XzXaX-X/.}.}.iX^.C.C.C.f.{ a.^.,XoXQ.E.w.5 c 6.q.oX0XW.+XAXXX8Xi.% X X . X X , N z W J I F v J J J P ' ^.,XxXLX",
"+.J t u 4.F.P.|.BX|.>.>.1.k.2.2.4.G 3.1.{ M.B.g.h.k.k Q 6.0 l 9 : E [ G [ W.t.s 0 < s %   + d D K $.#.2.z.=.#.Y +.J 4.4.Q.0XkX,X",
"eXe.E.@X}.{.P.D.F.jX3Xn.[ c H ,.Y 8 F P ( g.f.M.m.j.j @ m ! @ - I ,.) ] $.: = b S S S s + X , t z +.=.' O.=.l 6.K 4 n.kXbX*XD.2.",
"VXVXkX4.P =.=.:.:.n.*Xq.< O = = = l L F U U O.>.:.&.z @ % 2 @ K ) -.( O.*.( F b b A x s X . O O @ 9 F ( B y O @ - : c.L.f.M.d.f.",
"zX^.v.' P B v v 2.3.8 - $ - 0 : ; S J J B L @.@.U B Z p . . s 6.+.) ) @.&.O._ z - - > 0   & s 7 l I O.=.#.>   . O n J.-.d.g.a.^.",
"{.H.h.k.9 0 < - : - @ 3 m w.9.[ - 7 4.O.4.U v C B B z l # O + t R. XE.0.U 4.T z z t 7 %   O l [ 3.g.d.d.3.; @ @ @ s 0XhX,X^.:XFX",
"s.A.c.] 7 - > 7 x ~ m # = Q [ j @ 7 5.) _ J B M B W @X7X5X!.i.6XSXIXLXZX|.L 5.f Z Z N # % + l 9.b.L.U.2X*X6.: ~ b 4 4 _ [.,X,X[.",
"P.H.+.6 > 9 V V b W ..# : ; = 7 + X.W.0.3.] W D b Q.qXJXAXJXIXPXfX6X`.+X[.J C  .M u Z ..t.'.rXxXkXVXbX1X1X^./ ;.j.h./ 4 4 c f.d.",
"=.J z B W N B v B u > + O > S y @ 8.ZXLXpX6.b = = @ @ e uXyXt.9XAX..9 7 9 J z B L C C 0.W.R.7.6.J.D.4.k.*.s.B.N.M.M.C.3.k.h.C.C.",
"@.@.K B z B L L U K > O & d D x A tXcXXXXX8.7.R.yX9Xo.& 5Xr t.8XJXfXQ.+X#X| z J U ( @.U Z = - K k.h.v.-.k.A.a.m.M.f.` k.j.C.Y F ",
"J J B B C J B O.2.$.V 1 , d dXMXfXT.y t p + o.!.].9X9Xr o + R.q.x Q.W.@X`.~ i R =.4.<.9.V 1 p R iX1.{ ` 5 / h.b.{ G 4 _ b.c.x O ",
"@.U b b B _ &.Y.A./.OXR.`.`.MXGXGXXXu.u.! + .   . 3 &     & w t i 7 z y u i x V I 9.y > @ O O s E.<Xb.k.] G 6 8 # O - D [ y > + ",
"<X5.K [ [ @.x.P.-X,XOXrXrXgXXXT.i.8..X0XR.t.r.X O # & r r . a A p t B N S t # < < 1 O # # O O < w.hXnX,XvXmXR.2 $ O O 3 = - O # ",
"yX7 [ Z.V ; ,.@.P c b q..Xy...X.2 . O - - e g $ O 3 fXAXyXR.+ g t.].X.# i A x 7 w e % $ $ . < S dXAXMXFXDX0Xn 6 < m 3 $ ^ m ~.~.",
"r.+ W j # > T  .q.:XmXNX`.'.JXPXr X > A ~ S s O @ y q.W.[.W.!.X a p.g . # x x N D w + # @ < R :XGXGXMXNXGXtX8 5 H ;   3 r r.~.wX",
"  $ < - . + s u.W 8.7.7.t _.LX8X& & + % y V 6.z < J J c K 7 1 p & + m # O 6 N R u > ; R E $.oXKXeXoXMXZXsXJ.1.v.C.3.#   + fXxX=X",
"  3 s s a d 3 e w 1 p D ..tXdX8.X D i w - < U v F @.#.%.N A Z B Z Z R 7 @ @ z v J 9 _ [ ^.1XCXwXZ.( OXFXDXeXv.m.N.v.n . O '.DXmX",
"r.% x y f d & w D D p > i ..C y z C z D w 1 +.c.^.OX[._._. X XS.,X0.4.4. .Z V B P &.>.F.1XnXnXE.4.P./.*X}./.s.M.N.{ l # , i cXJX",
"cXu.W._.M 1 &   & # > t z v P ( U J B B f z O.P.lXlXZXFXKXKXVXVXZXlX^.+.4.@.C L J >.f.g.;.pXnXzX3X>X1X1XaX/.a.M.m.` c R @XxXgX7X",
"8X7Xi...1 1 + X   e d b [ -.z.z.O.U P Y Y %.] c.^.iXlXpXpXiXkXBXCXmXmXhXD.@.L M B ) c.n.}.bXG.c.N.m.l.V.A.C.C.m.M.f.f.V.M.l.5.< ",
"i # % t K x r X o & s S [ 2.>.>.c.( $.9.8 P ;XaXlX2XL.a.j.k.B./.}.pXGXZXbXD.L =.H.OX|.P.{.1X>XV.M.d.&.O.C./ H { P ' m.m.m.V.] y ",
"t u A N V x g o   O @ O 1 M J v V 6 < 0 : I ,X&XV.f.z.f.f.B.m.m.a./.}.*XnXZXbX1XP.A.b.k.f.f.-X,XS.5 @ @ > - u C M U *.g.B.B._ 7 ",
" .B M t < 1 r o . 3 # ; l B @.E < @ O O 4 } [ ] B.d.f.Y.M.d.N.d.V.I.h.#.=XpX}.A.{ A.{ k.h.k.,._ 8 @ O O & + M C C u U ' *.` U v ",
"b.;.v l < 1 $   . p K ] h.;.{ 9.0 @ @ O 7 6X+X/.b.C.jX}.-.B.{.%XpX;X,.2.G.2XL.C.j./ G R : 7 7 = 6 c 9.} < #  .O.@.=.L L B v V b ",
"{ *.K T B N , O $ - _ ;.f.j.L./.Q = p y : E W.rXkXkXjX>Xn.B.D.,XvXmX,X*XF.f.V.j.k./ 8 - 0 1 1 7 6 9 w.} p - B =.=.) B M v M b y.",
"P %.L u J T y < Q ~.=X%X4XjXBXkX*XG ` n.-.k : : F Z.-.V.M.g.F.<XjXbXBX{.{.P.^.#.9 < y z B T 9.E # . ; ; + . 6.$.F _ Y J T R XXJX",
"B B C B B v 0.#XqX+X}.%X%X|.E.<.F.z.d.d.B.V.] ] I =.V.V.jXBXjX>Xn.Y.F.F.L.:.( l t x V C M B U 9 @ $ O s & . ~.xXpXE.%.B < > w o.",
"S N L C L U U Y 0 @ 8 #.>.s.s.v.m.m.N.M.g.f.C.d.b.g.{ V.U.%X%Xs.M.d.N.d.:.:.J T M Z M C L J y = X 2 p S % m pXGXMX=XW D | p.o.e ",
"t.n M @.+.3.=.$.# q | ^.Y.m.{ / g.N.d.M.j.j { K.m.f.k :./ ] G.j.N.N.N.N.' P I z M M C C U 6.~ p + w 5.@X.XXXoXT.W W u i.gXUX].r."
};
