/* XPM */
static char *_313_aa771f4a7031c15e9c194a7b72e9efa34edb63dd71f34e60dadb9ceb662a1343[] = {
/* columns rows colors chars-per-pixel */
"64 64 256 2 ",
"   c #0A0B07",
".  c #140B00",
"X  c #160D04",
"o  c #0C130A",
"O  c #131301",
"+  c #1C1300",
"@  c #1D1A01",
"#  c #12120D",
"$  c #181708",
"%  c #080D15",
"&  c #110F15",
"*  c #0C1314",
"=  c #0C141B",
"-  c #0B1818",
";  c #131314",
":  c #14151B",
">  c #141A1B",
",  c #191817",
"<  c #221400",
"1  c #241B00",
"2  c #2B1D00",
"3  c #2A1C09",
"4  c #231615",
"5  c #18220D",
"6  c #2C2301",
"7  c #292603",
"8  c #322400",
"9  c #342B00",
"0  c #3B2C00",
"q  c #372C0B",
"w  c #3B3300",
"e  c #383403",
"r  c #3B3716",
"t  c #2F2D12",
"y  c #0A1627",
"u  c #181A23",
"i  c #091B35",
"p  c #0C162F",
"a  c #172438",
"s  c #132434",
"d  c #283934",
"f  c #221B22",
"g  c #433300",
"h  c #433A00",
"j  c #4A3B04",
"k  c #513D00",
"l  c #463A17",
"z  c #422F02",
"x  c #433A26",
"c  c #3A4316",
"v  c #394631",
"b  c #4C4300",
"n  c #494802",
"m  c #524400",
"M  c #544B00",
"N  c #5B4C00",
"B  c #574605",
"V  c #5A5503",
"C  c #484616",
"Z  c #5A5615",
"A  c #534A16",
"S  c #624E01",
"D  c #635401",
"F  c #6A5B01",
"G  c #675A04",
"H  c #725D00",
"J  c #675B12",
"K  c #5C6411",
"L  c #696505",
"P  c #766603",
"I  c #7B7507",
"U  c #6A6418",
"Y  c #786B17",
"T  c #787617",
"R  c #6F7110",
"E  c #554A28",
"W  c #524F31",
"Q  c #665B37",
"!  c #695828",
"~  c #7A7527",
"^  c #75683A",
"/  c #736C2E",
"(  c #172A47",
")  c #122E55",
"_  c #273A59",
"`  c #263549",
"'  c #072A66",
"]  c #0B3569",
"[  c #153768",
"{  c #173A75",
"}  c #0E336F",
"|  c #243D77",
" . c #263B67",
".. c #071B46",
"X. c #354952",
"o. c #1A4378",
"O. c #244579",
"+. c #39577A",
"@. c #324C71",
"#. c #4A5553",
"$. c #675A44",
"%. c #746746",
"&. c #766E4B",
"*. c #455A6C",
"=. c #496175",
"-. c #4E6550",
";. c #867604",
":. c #927B07",
">. c #867717",
",. c #866F0B",
"<. c #857A27",
"1. c #847737",
"2. c #877432",
"3. c #877548",
"4. c #887957",
"5. c #947D55",
"6. c #8D7748",
"7. c #8C7C63",
"8. c #7D834F",
"9. c #998705",
"0. c #988916",
"q. c #928B15",
"w. c #A89515",
"e. c #A8910E",
"r. c #B8A518",
"t. c #888427",
"y. c #968A28",
"u. c #9A9327",
"i. c #968B37",
"p. c #949038",
"a. c #A69728",
"s. c #A69A38",
"d. c #AE972E",
"f. c #B7A739",
"g. c #B7A92F",
"h. c #DBBC18",
"j. c #D1B813",
"k. c #E3BE13",
"l. c #C8B528",
"z. c #D6BD26",
"x. c #C8B738",
"c. c #D4BB39",
"v. c #C3AA31",
"b. c #DBC419",
"n. c #DBC30B",
"m. c #E5C71A",
"M. c #E5C60C",
"N. c #DDC627",
"B. c #D9C637",
"V. c #D7CB33",
"C. c #E6C726",
"Z. c #EAD12E",
"A. c #E5CA37",
"S. c #E9D237",
"D. c #F2D332",
"F. c #97844A",
"G. c #8D845A",
"H. c #9B8454",
"J. c #9C855B",
"K. c #9D8A5C",
"L. c #978758",
"P. c #9D9759",
"I. c #8F8C4A",
"U. c #A38C5C",
"Y. c #A58A57",
"T. c #AA935C",
"R. c #A79659",
"E. c #AA994F",
"W. c #9FA159",
"Q. c #ACA448",
"!. c #B6A945",
"~. c #ABA656",
"^. c #B7AA5A",
"/. c #B7B45C",
"(. c #BBB647",
"). c #9C8664",
"_. c #9C8C62",
"`. c #968866",
"'. c #978E6D",
"]. c #A38C62",
"[. c #A88D67",
"{. c #A49364",
"}. c #AB9464",
"|. c #AD9B65",
" X c #A4936B",
".X c #AB956B",
"XX c #AD9A6C",
"oX c #A59969",
"OX c #B39A64",
"+X c #B39C6C",
"@X c #B99D6C",
"#X c #B39566",
"$X c #AD9B73",
"%X c #A99875",
"&X c #B39D73",
"*X c #B89D77",
"=X c #AA8E70",
"-X c #A9A663",
";X c #B6A66A",
":X c #B8B469",
">X c #B5A373",
",X c #BAA474",
"<X c #B4A37A",
"1X c #BBA57B",
"2X c #BCAA79",
"3X c #B1AA74",
"4X c #C8B847",
"5X c #D3BC45",
"6X c #C9B957",
"7X c #C6AE4B",
"8X c #C4B968",
"9X c #C4AC7B",
"0X c #C4B57A",
"qX c #C4AA6D",
"wX c #E4BE51",
"eX c #D8C748",
"rX c #D8C657",
"tX c #D3CB52",
"yX c #E4C847",
"uX c #E8D447",
"iX c #E4CC55",
"pX c #EAD656",
"aX c #F1D651",
"sX c #D5CB6D",
"dX c #E8D665",
"fX c #EAD563",
"gX c #F4E257",
"hX c #BBC24E",
"jX c #173C82",
"kX c #1A4685",
"lX c #1C5095",
"zX c #254A87",
"xX c #2A558A",
"cX c #375789",
"vX c #2C559B",
"bX c #295798",
"nX c #355A97",
"mX c #2B4C92",
"MX c #3B618A",
"NX c #396399",
"BX c #2B6196",
"VX c #2A5BA5",
"CX c #345BA6",
"ZX c #365BB2",
"AX c #3864A6",
"SX c #2F63AA",
"DX c #445C8A",
"FX c #476698",
"GX c #47648C",
"HX c #4265A5",
"JX c #AA9B83",
"KX c #B9A882",
"LX c #B2A68C",
"PX c #C4AB84",
"IX c #C7B385",
"UX c #EAE388",
/* pixels */
"$.%.KX{.&X9XOX;X1X.X;X9X[.).IXY.H.IXT.].PX].+X+XY.#X[.J.}.oX5.<X`.G.%X&X=X*X>XP..X<X%X).1X#X5.KXJ.}.,X#X#X*X*X,X.XKXL.L.%X$XQ ! ",
"$. X>XKX=X*XIXT..X>XT.;X$X.XT.9X9XH.,X.X7.=X.X%X<X).`.G.&.&.%.Q W Q %.&.`.`.`._._.%X<X&X+X+X9X#X1X,XU.&X9XU.J.}.$XK.{.KX_.$X*XQ ",
"_.2XoX{.PXJX&X2XH..X9XY.,X,X[.#X;X}. X<X$X7.7.Q v t 7 7 O .   O X < . O t r $.&.JX].].+X}.H.T.P.F.H.@XJ.T.OX#XU.+X}.{.].%X1X%X&X",
";X|.>X&X=XIXPX}.9X&X|.>XU.}.,X.X}.KX4.$.Q t @ .   o O t r W Q W W W E r $ O 1 + q l ^ 3..X XI.;X|.5..X}.#XY.OX@XT.OX}.XXXX&X1X&X",
"2XR..X*X*X.X@X@X}.&XR.{.>X.XL.1X'.&.x 4     7 n ~ W.-X:X:XP.W.W.$X-X3X:X:XP.~ Z 6 . 1 t #.G. X{.{.IXH.XX+XU.OXH.#XT.OX@X}.{.&X.X",
"|.;X+XJ.*XY.#X@X.X_.oXK.P.oX%X&.W 3   3 C 8.:X^.y.T N j M e e w w h h h V I t./.:XI.C O @ r &. X$XK.XX{.XX*X5.OXY.T.OXY.#X#XU.@X",
">XH.XX,X5.#X*X5.XX,XL.3X].3.&.4 X 2 U ^.:XF.k z k S :.e.g.7Xc.l.l.z.r.e.:.H k k V I.:XW.Z 1 8 l G.K.&XXX&X).}.@XY.Y.@X@XH.OXPX6.",
"&X$XU.T.qXU.).*XK.|.oXI.4.W < + l -X6X,.g k ,.d.rXfXaXuXeX0.9.c.uXV.B.yXaXaXsX!.,.e n t.8X~.A < 8 &.G.`.$X X].}.@XE.T.@XOX#X[..X",
" XXX>XY.}.,XI.$XP.I.`.$.t < 8 F.:Xt.e M w.eXyXaX!.,.w.tXG Q.G D eXF k 0.f.u.sXeXS.N.9.V g i.qX1.6 2 $.7.G.$X).%X5.qXT.Y.9X@X#XqX",
"PX.XH.IXXXP.IX_.oX%XE t 3 A 2XQ.w g u.uXfXc.yXr.B Y n s.T M V G 0.B 7X6XY M V 9.S.gXuXtXu.g N 7X2XB < A 4.`.KXKX*XqX@X9XT.#X9XU.",
"XX&XXXL.XX$XL.3X4.Q 3 1 ~ sXY 8 :.A.uXx.>.S a.0.M UX>.U U z y.V a.M y.Q.V z 9.eXeXM 0.aXyX5XP 8 <.0XA . l 4.G.{.PX=X&X+XOXOXXX&X",
",X3X<XP..X$XoX$X$.3 $ ^ sXN g d.uXD.Z.9.z / m a.M N B s.s.i.f.u.(.I F <.P L I hXn L H B.C.S.iXu.0 D sXU @ q &.'.5.*X].5.,XR.K.XX",
"9X>XR.>XoXG.$X&.3 + ~ sXj S c.D.D.m.m.z.M L n I j.9.l.yXrXsX6XrXhXhXrXrXeXr.9.V M k ,.A.h.C.Z.S.v.k k sXZ @ q %.4.<X+X{.T.1X,XH.",
"+X.X{.{.oXoX%.r X %.sXg N iXZ.m.b.C.uXwXi.V T tXtXpX!.y.U D J n n K V 2.!.sXtX4X6XD ;.iXc.h.b.m.S.l.k j sXZ O l `.).{.}.}.}.U.XX",
"9X].&X$XoX$XQ . Z sXj N B.C.C.m.S.4XD G 6Xf.sX:X^ d d d ` d X.d v f X.d d v I./.tXf.8XL Y 5Xz.m.C.A.x.g L IX9 @ ! %X=XK.+XU.,X}.",
">X&X).%X%XQ 7 e sXL j eXS.m.C.A.!.h < . V ~.K t v @.nXDXDX..i a i ( cX+.+.X.d t U -X/ O . k 5Xz.h.C.S.x.7 ~ :X7 1 %.].+XU.OX2XL.",
"K..X&X4. XC 1 E.P.2 l.D.m.m.B.f.2 < $ # O 5 ` *.cXzXcXcX_ p % : % y ` cX+.zXcX*.X.5 # # O O w Q.B.b.C.S.w.7 Q.p.+ q 6.6.[.5.5.&X",
"3X{..XKX%.O V sX0 0.S.m.m.A.f.6 X : , : = y s @.cXNXcXO...% # , u % y X.DXDXcXcX( y %   o O O e f.V.k.C.eXP c :Xj 1 E 5.5.].$X=X",
"<X.X4.'.r e 8XL B eXD.m.N.g.w O # : ; * o % % y s ( ( y % = > , % u = y ( _ ( i = % : , % , # . M x.z.k.N.eXz 2.-X+ l '.5.{.9X].",
"&X X%X&.+ 3.^.8 r.D.M.m.eXM   , ; ; - o * - o % % * % % y > * > > : o * : % % : *   & , & : : ; . J c.h.h.yXy.8 /.Z @ Q .X[.]..X",
"PXJX'.C 9 :XV D A.m.k.A.~ O o * * - > & * : ; ; ; o % ; > ; ; u : f , # ; ; > : , # # % ; : & X X < y.B.m.z.wXk R P.+ r 4.G.+XT.",
"=XLX&.7 L !.z f.D.k.z.g.7 $ - - * ; y % ; :     # & o ; : ; : u u : , 4 ; # ; ,   * ; ; : : : , : + h 4Xz.C.A.:.e :Xl + $.`.U.T.",
"[.=X&.$ s.I k yXz.C.eXV O , = % = = & & u f = & & & : : : : : ; : : , , , o o > * - * % : , ; % : , + <.A.j.C.l.9 8.3.. E `.Y.T.",
"&X$XC e /.b 9.A.k.N.!.7 @ , % = = : : & & & & & : : : : : ; ; * = u , ; , ; # ; ; - - - * ; , o % , . h c.h.k.Z.L c ;X< r 7.PX6.",
"%X`.8 ! :Xw j.m.M.A.~ O + 4 = & % : : ; : * ; & ; ; ; & , > % u - - > > o $ # , : % & p : = > - - > ; @ a.C.k.B.q.e ^.M < $.7.}.",
"1X%.< L.1.m B.m.M.c.c   4 & f & , , ; & > > : > u , , * * ; * - - y - u u , * ; : : : % u : % - o > = . P c.C.N.B.e u.>.X $. X+X",
"KX! 2 :XZ P S.m.b.l.7 5 f 4 4 #   ; : = y p y % y - - > * * ; ; o > > u u & : y y y = u % * ; o o > = O M x.N.C.tXb ;.i.X $.%XL.",
" Xj 8 qXM t.S.m.C.q.5 - : u & # # , u = y ( [ @.` i y y > * ; , o * y s y p ` X._ a p & % # > $ o - & X 0 !.N.m.V.L S E.3 r G. X",
"%Xe k ^.g s.D.C.V.>.O - u u ; : ; : p i ) cXcXMXo.o.a p : : & 4 4 4 u s .._  .DXDXDX( s - > * = - - u 5 6 Q.C.j.A.:.m ^.8 t )..X",
"'.9 S !.6 g.C.m.uXI @ - > p s s a p p ) +.nXnXxX[ +.@.a p : , # & & y ..@.+.[ xXcXcX@.) y p a i y - % # 1 p.A.n.C.9.k ^.l r .X_.",
"`.8 G s.w g.Z.m.V.P O , y  .cXGXDX@. .+.cXMXNXzXO.FXGX@.a p : , & , s _ GXFXo.O.HXFXFXcX) o.FXDX*._ : < < >.A.C.Z.e.w :Xl 1 `.&X",
"`.7 J f.w g.Z.m.A.F 1 , y X.o.{ O.| [ [ o.} O.' | | | | ..% : : : = i @.o.o.] ] { { { O.) { jX{ | _ & < < <.A.h.z.r.e -XA 1 3.U.",
"4.g J s.e f.Z.C.yXP 7 5 #.X.O.kXzXzXo.o.kXlXkX} { zXzXzXo.i % u = i O.O.{ o.o.o.kX{ O.| ' | o.kXo.X.W < 2 y.D.k.C.w.9 :XC 7 {.Y.",
"'.8 G Q.9 v.C.m.A.:.@ 8.G.X.HXSXZXAX[ nXZXSXZXmX| FXCXAXAX[ p = p ) cXAXnXNXo.kXCXAXnXHXzXnXAXNXNX@.`.J 2 d.C.k.C.e.j ;Xr 7 3.5.",
"7.0 m Q.9 s.b.M.D.:.V tXI.#.MXVXCXNX] xXbXZXZXmX' cXAXVXAXO.p y i @.cXxXxXbX' VXCXCXbXxX} nXAXBXMX-.Q.g.b w.N.n.A.9.g R.q t G.}.",
"'.0 9 ^.9 u.Z.n.A.j.V.tXs.c GXbXbXCXO.O.vXCXVXZXzX| nXnXvXnX) p ..nXxXcXNXzXjXVXCXCXNXo.jXHXCXBX+.-.4XN.v.g.Z.b.V.I m OX2 x  XL.",
"JXl 2 ;Xn R V.m.x.a.0.eX4Xn +.VXVXSXO.] AXmXZXVXmX' zXNXvXnX| ..{ mXnXNXO.' kXSXVXbXBX] VXSXVXNX*.W tXc.>.!.5XB.eXV F E.< W %XG.",
"[.Q @ P.! b V.r.D F M a.rXR X.bXVXSXBX] xXAXCXVXVXbX' o.nXnXzX) zXnXnX{ ' zXSXVXbXBXo.o.VXZXVXnXX./ pXe.m m G d.tXw ,.<.. %. X X",
";X^ O &.p.e V.9.m /.t.a.eXu.v BXbXVXSXkX] MXbXlXlXVXlXo.' ' @.) | } ' jXlXSXlXVXVXxXo.lXbXVXVXcXv !.tXu.L V G v.Q.7 s.V 3 &.`.L.",
"qXP.e A -Xe 9.yXd.Y U S V.tXW X.MXlXVXbXo.] AXbXBXBXBXlXmXO.) [ { jXmXCXVXVXlXlXSX} ] SXlXbXCXX.K pXf.V T t.0.5X<.e ~.9 l  XXXJ.",
"Y.KXQ $ ~.j F iX<.H U N f.fXu.c +.lXSXBXxXo.] NXmXmXvXbXvXnXcX[ mXbXnXCXxXlXxXAX{ { VXVXSXxX+.v d.yXu.V n L r.yXn U W.o ^ =XL.>X",
"9X=X`.9 ~ y.8 7Xf.F i.Y S 4XtXK X.NXlXbXBXBX] ] HXnXmXxXbXnX@.[ mXbXvXmXxXNXBX{ jXvXVXVXvXGXv U yXB.I ~ V m x.r.9 I.Z @ `._..XL.",
"}.|.).z k ^.g >.pXw.L n t.w.V.f.c *.MXbXbXSXVX{ ' | nXCXbXxXzX[ mXxXvXnXcXo.' kXZXCXVXvXxX*.Z 4XyX9.m A t.s.rXF n ^.5 r [.[.&X X",
"H.OX+X! < F.2.0 eXw.L tXt.L l.pXs.c =.cXbXVXVXnXmX[ } } zXBXcX' cXzXkX{ ' ] xXVXVXVXlXnX=.C f.yXw.y.A j P x.!.8 u.<.  &.*X#XG.3X",
"$X[.#XY.l j :X9 P iX!.D R L F eXpXa.c =.nXbXBXnXnXCXvXjX' ' ) ) ) ) ' { xXnXbXnXVXbXMX*.C u.pXc.S G 8X>.w.aXD j ^.8 t `.#X@X*X5.",
"=X&XY.T.5.+ i.p.2 s.rXD n 1.Y >.V.yXs.c #.FX+.bXbXvXCXCXSXcX@._ +.xXFXCXvXvXnXmXxXGX#.r Q.gXV.;.<.D H w.B.e.2 E.^   E *X5.9X@X*X",
"U.+XOXP.$Xl 2 ;XN h 6X,.>.~ J b I gXpXf.Z v @.MXNXxXbXBXbXxXDX[ xXbXvXvXvXnXnXDX=.c Z 4XiXrX;.c e u.;.r.6Xg P ^.2 q ).4.@X#XY.OX",
"qXT.Y.>XoXG.9 Z :Xq H dXf.m L <.(.V g.gXhXt.v v *.=.MXxXMXxX@.[ xXxXnXnXcXGX*.X.c I.tXuXv.N s.t.u.G c.iXk k 8Xb 1 4..XY.5.OXOX5.",
"#XqX@XU.,X>X^ 2 <.~.3 Y fXa.q.0.N N f.>.5XdX4Xt.n r v @.=.cXcX_ cXcX=.*.X.r A <.6XfXrXw.a.P b t.tXV.tXF 2 3X/ . Q _.U.>X[.#XT.#X",
"#X@X*X@XK..X$XE + P.i.6 >.pXg.I n Q.>.m P l.V.uXtXs.~ Q W v d d v #.W E / i.tXpXeXv.:.D B u.V P r.gXP 2 E.F.. l %X$X&XU.T.+X5.#X",
"OXY.[.@X$XJ..XXXl X ~.u.< T pXx.q.>.P L t.D tXg.eXpXfXiX5X5Xd.a.g.v.c.pXaXfXc.7X;.M y.V F I e.x.iXH 8 s.R.< q `._.{.G.}.6.Y.9X#X",
"Y.Y.9XY..XKXK.JX=Xq 8 E.E.1 V tXeXe.I I >.N (.G D 9.w.r.B.B.D.S.D.D.C.j.e.v.I V s.Y T y.F 0.pX4XB 6 Q.s.< 0 %.).XXR.J.>XOX@X[.=X",
";XT.R.,X$X X%X%XLX$X8 1 I.~.0 8 Q.dXg.a.n G ~ M n I V V L V q.V e.A.S.L h R T n s.L b g.l.pXa.z w ;XG.< 8 {.+X|.*X[.#X5.Y..X_.$X",
"@X9X|.+X$X=X%X XG. XJXl X ~ :XZ O L 4XsXa.y.t.V L R L R K Q.t.D F eXV.I M G t.M L 0.d.iXB.P < ! :X/ < 2 L.H.J.Y.5.+X[.}.[.[.KXP.",
"+X2XIX].XXPX5.$X1X5.%XKXQ < j -Xp.n 6 Z 8XsXf.w.w.9.g :.D u.t.D P c.z.e.H ,.e.e.x.fX6XP 8 z ^.OXC   z oX}.U..XY.#X@XY.}.&X.X_.oX",
"2X>X XIX|.H.>X_.{.&X_. XKX4.8 + / :XI.9 @ M 0.4XiX4Xf.7X0.7Xd.P 0.x.c.v.v.wXyXyXw.N 7 g F.qX/ < < $.)..XL.{.>X[.[.#X*XU.].>X3XoX",
"<XIX1X&X9X}.}..X.X+X*X<X XKXKXC X 9 3.-Xp.n 7 8 n ~ E.8XsXrXsXrXeX6X6X^.E.<.N 0 9 M i.8X&.0   q 3.$X$X)..X;XY.-XY.#X[.5.[.6.qX#X",
"$X$XIX>X+XqX5.@X+X].U.&X%X%X>X'.7.q + 9 U E.W.I.! 9 7 7 0 g g m g g 7 7 9 6 Z I.R.OXU 1 . 2 &.%X=X[.[.&X|.H.,XH.#X[.#X.X#X@XOXH.",
"KX XK.&X}.U.@X#XJ.*X[.H.>X%XG.R.&X).3.e . O q Q G.W./.Q.y.<.R ,.>.T t.E.-XP.K.Q l . < E ! G.oXoX&X[.[.qX|.}.R.,X#XH.PX*X#XqXqX;X",
"]..X&X}.+X[..X}.*X].[.,XU.R.IXF.}.1XXX_.`.W 7     @ 9 M J / / / R L K n 9 + < 2 l &. X'.>X|.L.XXT.9X;XF.+X|.6.T.}.@XY.#XPXOX@X@X",
"$XK.2X,X1X1X>X.X*X1X&XXX>XOXT.;X>X2X3X>X<X&X7.3./ C e 7 1 $ 7 1 @ 7 7 9 E Q 3.%X).PX.XJ.+X].}..X@X@X}.+X}.T.IXJ.+X;X#XOX}.#X.X}.",
"%X<X$X$XPX>X>XPX{.1X1X{.,XIX|.2XXX-X>XT.[..X#X*X_.'.oXG.'.JXJXLXJX'.oX{.'.KX*X=X+X}.T.+XH.].qXY..X#X}.@XU..XU.U.&XY.T.U.}.U.J.KX",
"%.`.IXLXoX|.2X>X9X>X.XPX.X[.IX[.K.XX}.}.}.5.=X5.5.].{.K.Y.5.4.=X%X`.R.>X{.{.}.T.F.U..XH.T.F.Y.&XJ.K.,XH.[.#XY.#XH.F.H.F.XXXX$XQ ",
"E %.JXKXKXR.|.>X{.XX+X].&X&X5.+X[.3._.^ 3.$X7.4.=X6.6.~.6.1.=X7.'.$X6.H.{.R.|.+XU.*X#X.XR.Y.&XH.}.<X1.{.5.2.OXE.5.OX,X,XXXXXQ Q "
};
