/* XPM */
static char *_347_d1ade6d23c24af56b0f064d20c8f548a102fcc0b8f3c73806ed9b1a31a7de857[] = {
/* columns rows colors chars-per-pixel */
"64 64 109 2 ",
"   c #484236",
".  c #47433A",
"X  c #49443B",
"o  c #4B483F",
"O  c #514A3F",
"+  c #444341",
"@  c #484745",
"#  c #4E4A43",
"$  c #4F4E4C",
"%  c #524D44",
"&  c #584F46",
"*  c #534E49",
"=  c #555147",
"-  c #595147",
";  c #55524B",
":  c #5A554C",
">  c #5D594E",
",  c #565552",
"<  c #5A5651",
"1  c #575853",
"2  c #5D5A54",
"3  c #5E5D59",
"4  c #60594F",
"5  c #625D54",
"6  c #615F5A",
"7  c #5F605B",
"8  c #666156",
"9  c #696257",
"0  c #64625C",
"q  c #6A655C",
"w  c #6D695E",
"e  c #70675E",
"r  c #71695E",
"t  c #666561",
"y  c #696761",
"u  c #676860",
"i  c #6C6A64",
"p  c #6E6D69",
"a  c #736D64",
"s  c #786F66",
"d  c #716E69",
"f  c #6F706A",
"g  c #757066",
"h  c #797267",
"j  c #74726B",
"k  c #7A756C",
"l  c #7C796E",
"z  c #767471",
"x  c #7A7671",
"c  c #7D7A73",
"v  c #7B7778",
"b  c #7E7D79",
"n  c #80776E",
"m  c #81796F",
"M  c #807770",
"N  c #827D74",
"B  c #887F76",
"V  c #827E79",
"C  c #858076",
"Z  c #898176",
"A  c #85827B",
"S  c #8A857C",
"D  c #8C887E",
"F  c #90867A",
"G  c #91897E",
"H  c #878581",
"J  c #8A8681",
"K  c #878882",
"L  c #8D8A83",
"P  c #8E8D89",
"I  c #928D84",
"U  c #998D81",
"Y  c #928E89",
"T  c #8F908B",
"R  c #959186",
"E  c #999186",
"W  c #95928B",
"Q  c #9A958C",
"!  c #9D988E",
"~  c #959490",
"^  c #9A9691",
"/  c #979892",
"(  c #9D9A92",
")  c #9F9D99",
"_  c #A0978E",
"`  c #A1998F",
"'  c #A29D94",
"]  c #A99F96",
"[  c #A29E99",
"{  c #9EA095",
"}  c #A5A096",
"|  c #A9A196",
" . c #A6A29B",
".. c #AAA59C",
"X. c #ADA99F",
"o. c #B1A99E",
"O. c #A6A4A0",
"+. c #AAA6A1",
"@. c #ADAAA2",
"#. c #ADAEA8",
"$. c #B2ACA4",
"%. c #B2AEA9",
"&. c #B6B1A6",
"*. c #B9B0A7",
"=. c #B5B2AB",
"-. c #B9B6AF",
";. c #BBB7B4",
":. c #BBB8B1",
">. c #BEBDB8",
/* pixels */
"- 4 .._ U I U E R E ( Q ( X.R R W [ L H P V P P H ) #./ K c T b z u i b / K Q X.R c L S K c z f c / / / V b Y P b P A p z b $ 1 ",
": ] F G Z D Z Z A B C D I R C c M x d d d , t b v H ~ f f u f u 1 7 1 1 0 i 0 D j 0 j l v u 0 3 q D T C v H H t t t A b K z p + ",
"h ! F D m D h k B N l c A ! ( Q 6 t y # 3 t t 7 3 i H 0 f u f i 1 u 7 7 0 j 2 A z p t j z t i 7 u G ! f 6 d v 6 j p d v z d b y ",
"' U N h s k N s l N c k l } ! D S k y 0 z 6 3 3 1 p K t j i 7 0 1 u i u , 0 1 / f z j f 0 1 7 t g S R i 6 0 y $ p A x I z V J H ",
"! U h 9 9 s 5 9 w w h i g ( C q M ^ ^ x d 6 z d 3 z b t f y w f 7 3 3 t t t 3 V z f f i f f 7 7 u w D f f f j 0 c A S A j x V V ",
"D N a r a w o q q q j g g } A C Y ~ H x V V J d z H H i f i 0 7 7 7 p p d i y H u u z u 7 7 7 7 w w D j i k V x q c D N S b d z ",
"! C 5 j k < a j g g a q a ( A D _ ^ Y A z z z d d v J q f f q 0 p 7 7 1 7 i t P b l f 7 7 1 1 7 g w D l p c d 6 ; 0 g j x M d x ",
"' N q q q w 8 q 8 0 : : i } A i V B J V M A v M j z W 3 0 0 7 0 1 3 i 3 0 8 $ W f u 7 1 7 ; 1 7 5 7 R S p z x N N i S I h k I V ",
"@.` L J L W Y x A C L Y R [ ` ^ [ Q [ Y Q [ ^ ) /  . .W P C R R H P K K D D {  .! A C D D K K D I ^ +...L L L R Q I ! } G A Q  .",
"~ W +.@.@.+...%. .Q ^ ^ ` [ [ %.+.Q Q Y U A H J J R W P W I / / K { D { #.} { { ! R / #./ D K K S D J J V x d l ! E ..{ ! S ( { ",
"J V [ L M ) +.I W L I S P B J [ Q M M M v d d e z d f l N w j I l K c K w w S c l h l { C f f i d A A j x d w j D R X.D c j j p ",
"V * x J x v ^ Y A H J V L J J ` _ Y V M M j d < d x g f f 0 g S f c A l = w l r > 8 u l C l C i N k x * x y j f N K X.N 6 A z b ",
"Y J P M J J ~ V x M d d x J M ^ G U M M B M M y 6 a x J G S S I i C g 7 C D 8 w w w > l D f l j c c j c 0 i w C i v [ P j Y v b ",
"P P P V V L W V v x y d d M d ^ Q Q J S A M j j I N x L Z h N / l u g a g l q q w w O l C g j A l w j j f i p i N M J J j z v z ",
"d d L H k V L d v x j M k x d _ J S B S M M B k V B J Q Z F _ ` 7 j l f g 0 # r > w > f C b L A i q i 0 1 7 f f j i H H p t p t ",
"v d v z v ^ Y x x M M M j d j [ [ U Y E A ^ ~ s S B M J C F _ G f l f i w k q a g 4 w D { l b z c j c N z b N N k i O.H t p p p ",
"+.+.[ ^ ] [ [ ' ' Y k I J P ) W ~ Y ! Y  . . .! _ G G | G _ | | { @. .} o.&.$.&.o.' I ..' +./ J T R W { ( Y R A Y (  .=.~ ^ O.[ ",
"J Y R v B B Q E D i < < 6 y z f d p s j ! S Z m r m F G G G G o.$.D I / Q ! _ X.' _ Q  .J R A j g f f l d 6 3 : 3 V P ^ v d d z ",
"6 y x a k s Y ' Z q 0 0 d p x x 0 0 p p ' D k B C h G G F F F o.G k N N G R h 9 G U S L S ( c p 0 0 j b d d y t 6 A W ^ t < ; < ",
"y y d a j a J I A k y 0 t , f p d q l d E D a I l h Z F Z F G G j i g w a c D O m B I J x ^ N l p p k f 2 0 6 3 d x H [ 0 2 y t ",
"y p p 0 q j I A j z t 0 7 7 f f f p j p L c j N h Z Z G Z C C Z 8 a w 8 g g D Z N r A L j ( S 0 p p j f 7 p t t j p z W 6 < t 0 ",
"j p y t 6 y V d t t y 0 t z p f j x q j Y d S k h r h G G Z Z F 8 > g j l h C D s s k l c ( v g c f f z i t 3 3 3 t t P p 6 0 z ",
"y 2 3 i i t A p c f i 2 , 0 1 7 p c i c R p A k r 4 9 C Z C F Z w 8 8 w h w q l c N a w N { k w b f 7 7 7 1 3 y i f p K j y 6 p ",
"j 7 3 0 p t H i t p 3 3 3 3 0 0 i z l k J 0 g N r h Z r 9 r Z G g 8 > w 8 : a a g g N A 0 R K f j f t 3 t , 2 3 i t 3 H 0 t t t ",
"p i 0 j v z P z t p p 7 3 i j 0 t 0 c A { C j 7 N C E ! F 9 C G g r h l h l N D g g N g N { W g t 7 t p t 3 t 2 i i d P t x k q ",
"/ / K b H P ~ ~ H T H T ) W P A A W T Q R R G R G ! ` ! G G | G ` ` | E X.} ! { R R { ~ ( =. ./ / T T / P P ^ ~ ) O.[ @.%.+.[ O.",
"@.A u t 3 3 $ 3 v t 3 p Y d w B w a i q = > l E E G ! G Z G F F G ` | Z A l l l g f c N R ! i w z v p y j p V ( K W ^ L W R I S ",
"R c 0 i 3 t 3 1 p p p t S l i s i g > : 8 > w E R E D Z h n Z m l G o.` C l w = k 0 0 8 C K ; > t z t 3 p t d ' K L Y 6 k V q k ",
"S W 0 0 7 0 t p t t z p J x n e 9 w q m q 9 9 ` G C C C h C C Z N G ` R A Q R c c c g 7 c D ; 9 p p p j y q x Y B J e k A y k r ",
"I R 7 w u 0 p i v t < d J 4 e a 9 4 > r r h l D r Z h Z C h Z m m E ` C E } / D c J S b D R > 5 p u 0 y 0 6 x W x s N I h s s q ",
"D R c l j c z , v b z z S 5 4 4 9 h r O h r w G w C G F C F C C m ` | Z R Q T A A D N N A S > 6 t p 1 2 y 6 d ! N Z m h 5 q 4 e ",
" .@.} I P T b ~ H ~ ^ H [ B s F D D R S G G E o.F G | ` ` G G | G o.*.` Q .. .! ( } / {  . .C I W W L R W S Y +.^ I I ' Q _ U I ",
"c D @.J v A A A ! T A D l !  .Z i j A J B J Y ] R I I U E D D C m B n m o.E B m m g l C C l D l w C l { T C c f z H b K b v b b ",
"i p L 0 # = ; > f g u g a I R g y z p A d k x Y a N D I N h r g 9 s 5 5 G B r r w h 8 8 l g 4 > O = > c j u p 7 p 7 7 1 f z 7 u ",
"j i D 8 ; ; = # = > = 8 q / Q c f j t H x x V Q B M D G G 9 q Z s n s 5 G Z 8 4 g l 9 w >   > O w 8 u C j w j 7 7 t p @ 7 z i t ",
"k i A 1 # : 6 > ; 9 8 8 7 D L A f p y v N z V E S M C h S h g C B Z B a E Z r m 9 l w g w > l w = 8 4 D c q z i p f f p z p i b ",
"j j I 0 ; 1 w 0 0 7 > 1 w I A i j y x c V v x J a j s k N A f g h h l a E Z 4 w 9 w > : q 8 A w 9 g 4 R D 9 u u w f j f z b z 7 ",
"q j ! y 8 8 0 3 ; > 7 > < V c l p 7 i f j H k J a j M M A N g N C l l 4 Z C > 5 g q 8 4 q % w a r l = D D i f z z 7 f f p H f p ",
"j z P 2 5 3 8 0 ; ; = 2 * S d d f 7 u p v J J ^ a x V y k g N k w l C g D l - 9 = 8 8 q l ; . d l g - C G l l l b l c i u A A b ",
"j c Q 6 3 ; 1 8 1 > 7 g 6 ^ j d f t p i y t M [ M k d B A k N l a a a w G l O > 4 = 4 5 0 h 6 8 w 4 8 D ! R C f b A z f z u C K ",
"P / ) ~ H P T W V T T ~ P L H P ~ ~ P T ~ ~  ...( ( Y [ [ I ( } ( ! ( { ..} ! ( } L L I I ' ! I } E ! X...X.} Q R { Q  .~ R T T ",
"0 3 p i j v T z y p 7 0 , , * t p p 0 p c K W V V M V J v s j j g ! X.&.D S L S l R S A N E +.I D Z Z G R D Q Z A I K K f f 0 7 ",
"3 , i t 0 t K 1 1 7 , , , 3 , , 0 t 0 0 6 d L v d y J A j v p 0 l L  .{ a c A q 6 N q 0 w J ' q 8 9 s h r O s B N j l l 2 1 7 2 ",
"3 3 p i i 0 P i * 3 3 3 7 y 1 , i 0 7 t 6 k L x V x A j y d i g l D ( A j j 0 j p h i q 6 S S : 8 > 5 q h > 5 s N w j c ; 1 7 0 ",
"t 0 7 t i 3 b 7 3 3 7 7 3 , , 3 3 3 6 y t d J j c V b x x f u i c w T I c c p p s t t 6 5 V s # 8 2 5 9 s M q 4 a w A A 1 t 0 7 ",
"0 0 2 t p p H j t t 7 1 7 3 7 t 3 t y t 6 k ~ M J S d y f u i k g C K W a 0 0 j y 6 5 6 y M V * : 8 8 9 5 s 5 s 9 6 N A 7 u 0 7 ",
"3 7 7 0 0 t b p , , , @ 1 3 1 1 3 < < , 6 M ~ v V v p p f 7 0 f c j f A 2 2 0 3 < < < 6 ; y V 5 * * % % % 5 : 5 q 4 p k , , $ 1 ",
"A b K A b b ) H v v b v b z z H b V J Y V P [ ~ L A A W P K S R S W  .{ ( K A ! P J B P V _ +.L N J A S S W U S Y I (  .K P T K ",
"b k l L @.-.-.&. .#.>.b P O.T /  .^ Y I J L I Y _ ` ` Y G _ F G G Z D D x S N [ ;.%.%.;.+.O.O.O.+.K @.@.[ L U U ! Z I N D A P L ",
"# ; = = ! } T W A  .g y A b j A [ A k j y B Y U B I I k n n s B l h e m k G l S =.^ ^ O.O.~ H T b A K ) ( a < c N 9 9 5 9 > 2 9 ",
"; > > . W R j A P ; / ( c k i b ' V j S d L J N N U I 5 n e 9 n > h r h Z B B ' L V H Y v y ~ v A b z b [ ; & 6 w 9 5 X % 3 w 3 ",
"# # > ; R A A P P w k c z p f b J s j J x V M n N I U 5 r e e n a q r a s k I L B P P P v d O.b W T b T J # ; < 5 5 y 6 q 8 0 > ",
"> > 8 w S j C D c K ~ S 0 f 0 k J j j j a a A ( n B I a a s e 9 h 5 8 r 4 n y k _ L L L ) [ ~ P K ~ A ^ Y , 6 4 5 q 6 < 2 < 6 5 ",
"< w 8 w L N D D S S A g f l 0 j L j j q q 2 g D s N I s e e e 9 r g r 9 a a & J ~ H H ^ ^ ' H A K z b Y L * i 6 < y d 6 0 y y 0 ",
"; 2 : > C j l c P a f 8 l C a A P g k i j i j q a M U e 9 5 e s Z r C r a 4 & V ^ J A ^ v x V d H p j W d # 4 5 5 < * : < # * 6 ",
"5 = > q J C S L P D g f a l 0 A W u w q l D I s a N _ d n e n n h g m h s 4 ; L +.V M B x v x V x j k A ^ y : < < 6 : 5 6 4 ; : ",
"R } W W  .R ! [ R G I I D { X...+.] ^ W ' [ ..[ ] o.*.E ..` ] ' | ` | ' ` ` X... .' ! J W [ W ` Q { X.E D S k G L _ U I @.} I E ",
"R S I R I A I ! P C R D C D D I L E L Z N c I ..*...' ' E _ _ E ` ` ! ` ! ` X.E a a q 6 a B x N Z F ! > = = 5 5 y a q 5 D ' ' D ",
"S N c N C c k W S q l l l N > % M d 6 6 w w l ` _ Y _ Q R E I Z D G G G D ! ..m a a k 5 M k B M h h G   : > 5 X 5 N a 4 G G C C ",
"N k g l D D g S D q C l g g > 8 a e 4 5 6 > 5 R ^ E I B I L Z S F G Z D B D ..h 5 9 k 9 x q B i e h E 4 w w 6 : 5 5 4 5 R D h w ",
"f q 8 a g l l c m w g h 8 9 h D e 6 e 5 4 & & I E J M k x N q d k M M B N N ] i 8 r 9 9 4 e B Z q n Z O 5 4 - 4 q 6 6 : D N g 9 ",
"0 a q i i g l S Z w 8 r w w r g e 5 5 5 4 : & L L s V B N h i g k M V B B N ' e q e - 4 O 8 r h r h G O 9 5 5 5 5 ; > * ! r q l ",
"o 7 f a j w 8 C l w q h r 9 9 8 & & < & # : # Z J s L M N j x B x M k k s N R 4 8 4 : e e r 5 4 O e G 9 5 4 5 5 , ; 6 % A j q . ",
"= = l l g i g Q F h h m l h C Z s s n a a M a _ Y I Y M I R N V N B k N M ` +.B n r 5 Z Z ` F m r s _ h y i d p x x d x ! c = : "
};
